<svg width="48" height="48" viewBox="0 0 48 48" fill="none" xmlns="http://www.w3.org/2000/svg">
<rect width="48" height="48" rx="24" fill="#2E3DA3"/>
<path d="M23.2197 29.892C23.3317 29.892 23.4297 29.9375 23.5137 30.0285L24.3222 30.9C23.7062 31.614 22.9572 32.1705 22.0752 32.5695C21.2002 32.9685 20.1397 33.168 18.8937 33.168C17.8157 33.168 16.8357 32.9825 15.9537 32.6115C15.0717 32.2335 14.3192 31.7085 13.6962 31.0365C13.0732 30.3575 12.5902 29.5455 12.2472 28.6005C11.9042 27.6555 11.7327 26.616 11.7327 25.482C11.7327 24.348 11.9112 23.3085 12.2682 22.3635C12.6252 21.4185 13.1257 20.6065 13.7697 19.9275C14.4207 19.2485 15.1977 18.7235 16.1007 18.3525C17.0037 17.9745 18.0012 17.7855 19.0932 17.7855C20.1642 17.7855 21.1092 17.957 21.9282 18.3C22.7472 18.643 23.4682 19.1085 24.0912 19.6965L23.4192 20.631C23.3772 20.701 23.3212 20.7605 23.2512 20.8095C23.1882 20.8515 23.1007 20.8725 22.9887 20.8725C22.8627 20.8725 22.7087 20.806 22.5267 20.673C22.3447 20.533 22.1067 20.379 21.8127 20.211C21.5187 20.043 21.1512 19.8925 20.7102 19.7595C20.2692 19.6195 19.7267 19.5495 19.0827 19.5495C18.3057 19.5495 17.5952 19.686 16.9512 19.959C16.3072 20.225 15.7507 20.6135 15.2817 21.1245C14.8197 21.6355 14.4592 22.2585 14.2002 22.9935C13.9412 23.7285 13.8117 24.558 13.8117 25.482C13.8117 26.42 13.9447 27.2565 14.2107 27.9915C14.4837 28.7265 14.8512 29.3495 15.3132 29.8605C15.7822 30.3645 16.3317 30.7495 16.9617 31.0155C17.5987 31.2815 18.2847 31.4145 19.0197 31.4145C19.4677 31.4145 19.8702 31.39 20.2272 31.341C20.5912 31.285 20.9237 31.201 21.2247 31.089C21.5327 30.977 21.8162 30.837 22.0752 30.669C22.3412 30.494 22.6037 30.2875 22.8627 30.0495C22.9817 29.9445 23.1007 29.892 23.2197 29.892ZM36.4805 20.3055C36.4175 20.4105 36.3475 20.491 36.2705 20.547C36.2005 20.596 36.113 20.6205 36.008 20.6205C35.889 20.6205 35.749 20.561 35.588 20.442C35.427 20.323 35.224 20.1935 34.979 20.0535C34.741 19.9065 34.4505 19.7735 34.1075 19.6545C33.7715 19.5355 33.362 19.476 32.879 19.476C32.424 19.476 32.0215 19.539 31.6715 19.665C31.3285 19.784 31.038 19.9485 30.8 20.1585C30.569 20.3685 30.394 20.617 30.275 20.904C30.156 21.184 30.0965 21.4885 30.0965 21.8175C30.0965 22.2375 30.198 22.5875 30.401 22.8675C30.611 23.1405 30.884 23.375 31.22 23.571C31.563 23.767 31.948 23.9385 32.375 24.0855C32.809 24.2255 33.25 24.3725 33.698 24.5265C34.153 24.6805 34.594 24.8555 35.021 25.0515C35.455 25.2405 35.84 25.482 36.176 25.776C36.519 26.07 36.792 26.4305 36.995 26.8575C37.205 27.2845 37.31 27.8095 37.31 28.4325C37.31 29.0905 37.198 29.71 36.974 30.291C36.75 30.865 36.421 31.3655 35.987 31.7925C35.56 32.2195 35.0315 32.5555 34.4015 32.8005C33.7785 33.0455 33.068 33.168 32.27 33.168C31.29 33.168 30.401 32.993 29.603 32.643C28.805 32.286 28.1225 31.8065 27.5555 31.2045L28.1435 30.2385C28.1995 30.1615 28.266 30.0985 28.343 30.0495C28.427 29.9935 28.518 29.9655 28.616 29.9655C28.707 29.9655 28.8085 30.004 28.9205 30.081C29.0395 30.151 29.1725 30.242 29.3195 30.354C29.4665 30.466 29.6345 30.5885 29.8235 30.7215C30.0125 30.8545 30.226 30.977 30.464 31.089C30.709 31.201 30.9855 31.2955 31.2935 31.3725C31.6015 31.4425 31.948 31.4775 32.333 31.4775C32.816 31.4775 33.2465 31.411 33.6245 31.278C34.0025 31.145 34.321 30.9595 34.58 30.7215C34.846 30.4765 35.049 30.186 35.189 29.85C35.329 29.514 35.399 29.1395 35.399 28.7265C35.399 28.2715 35.294 27.9005 35.084 27.6135C34.881 27.3195 34.6115 27.0745 34.2755 26.8785C33.9395 26.6825 33.5545 26.518 33.1205 26.385C32.6865 26.245 32.2455 26.105 31.7975 25.965C31.3495 25.818 30.9085 25.65 30.4745 25.461C30.0405 25.272 29.6555 25.027 29.3195 24.726C28.9835 24.425 28.7105 24.0505 28.5005 23.6025C28.2975 23.1475 28.196 22.5875 28.196 21.9225C28.196 21.3905 28.2975 20.876 28.5005 20.379C28.7105 19.882 29.0115 19.441 29.4035 19.056C29.8025 18.671 30.289 18.363 30.863 18.132C31.444 17.901 32.109 17.7855 32.858 17.7855C33.698 17.7855 34.461 17.9185 35.147 18.1845C35.84 18.4505 36.449 18.8355 36.974 19.3395L36.4805 20.3055Z" fill="#F9FAFA"/>
</svg>
