<svg width="48" height="48" viewBox="0 0 48 48" fill="none" xmlns="http://www.w3.org/2000/svg">
<rect width="48" height="48" rx="24" fill="#2E3DA3"/>
<path d="M19.4372 27.414L17.0747 21.2925C17.0047 21.1105 16.9312 20.9005 16.8542 20.6625C16.7772 20.4175 16.7037 20.1585 16.6337 19.8855C16.4867 20.4525 16.3362 20.925 16.1822 21.303L13.8197 27.414H19.4372ZM23.6792 33H22.1042C21.9222 33 21.7752 32.9545 21.6632 32.8635C21.5512 32.7725 21.4672 32.657 21.4112 32.517L20.0042 28.884H13.2527L11.8457 32.517C11.8037 32.643 11.7232 32.755 11.6042 32.853C11.4852 32.951 11.3382 33 11.1632 33H9.58819L15.6047 17.9535H17.6627L23.6792 33ZM37.932 29.892C38.044 29.892 38.142 29.9375 38.226 30.0285L39.0345 30.9C38.4185 31.614 37.6695 32.1705 36.7875 32.5695C35.9125 32.9685 34.852 33.168 33.606 33.168C32.528 33.168 31.548 32.9825 30.666 32.6115C29.784 32.2335 29.0315 31.7085 28.4085 31.0365C27.7855 30.3575 27.3025 29.5455 26.9595 28.6005C26.6165 27.6555 26.445 26.616 26.445 25.482C26.445 24.348 26.6235 23.3085 26.9805 22.3635C27.3375 21.4185 27.838 20.6065 28.482 19.9275C29.133 19.2485 29.91 18.7235 30.813 18.3525C31.716 17.9745 32.7135 17.7855 33.8055 17.7855C34.8765 17.7855 35.8215 17.957 36.6405 18.3C37.4595 18.643 38.1805 19.1085 38.8035 19.6965L38.1315 20.631C38.0895 20.701 38.0335 20.7605 37.9635 20.8095C37.9005 20.8515 37.813 20.8725 37.701 20.8725C37.575 20.8725 37.421 20.806 37.239 20.673C37.057 20.533 36.819 20.379 36.525 20.211C36.231 20.043 35.8635 19.8925 35.4225 19.7595C34.9815 19.6195 34.439 19.5495 33.795 19.5495C33.018 19.5495 32.3075 19.686 31.6635 19.959C31.0195 20.225 30.463 20.6135 29.994 21.1245C29.532 21.6355 29.1715 22.2585 28.9125 22.9935C28.6535 23.7285 28.524 24.558 28.524 25.482C28.524 26.42 28.657 27.2565 28.923 27.9915C29.196 28.7265 29.5635 29.3495 30.0255 29.8605C30.4945 30.3645 31.044 30.7495 31.674 31.0155C32.311 31.2815 32.997 31.4145 33.732 31.4145C34.18 31.4145 34.5825 31.39 34.9395 31.341C35.3035 31.285 35.636 31.201 35.937 31.089C36.245 30.977 36.5285 30.837 36.7875 30.669C37.0535 30.494 37.316 30.2875 37.575 30.0495C37.694 29.9445 37.813 29.892 37.932 29.892Z" fill="#F9FAFA"/>
</svg>
