<svg width="18" height="18" viewBox="0 0 18 18" fill="none" xmlns="http://www.w3.org/2000/svg">
<g clip-path="url(#clip0_5243_267)">
<path fill-rule="evenodd" clip-rule="evenodd" d="M12.3754 3.15099C11.0381 2.37937 9.47662 2.08953 7.95147 2.32982C6.42632 2.5701 5.02963 3.32598 3.99434 4.4714C2.95904 5.61682 2.34771 7.08255 2.2623 8.62415C2.17688 10.1657 2.62254 11.69 3.52496 12.9428C4.42738 14.1956 5.732 15.1012 7.22128 15.5085C8.71055 15.9158 10.2944 15.8002 11.7088 15.1811C13.1232 14.5619 14.2826 13.4766 14.9936 12.1061C15.7046 10.7356 15.9243 9.16274 15.616 7.64986C15.5333 7.24399 15.7953 6.84792 16.2012 6.76522C16.6071 6.68251 17.0031 6.9445 17.0858 7.35037C17.4626 9.19944 17.1941 11.1218 16.3251 12.7968C15.456 14.4719 14.039 15.7984 12.3103 16.5552C10.5817 17.3119 8.64579 17.4531 6.82557 16.9553C5.00535 16.4575 3.4108 15.3507 2.30785 13.8195C1.20489 12.2884 0.660197 10.4253 0.764594 8.54116C0.868991 6.65699 1.61617 4.86554 2.88153 3.46559C4.14689 2.06563 5.85395 1.14178 7.71803 0.848094C9.5821 0.554413 11.4905 0.908654 13.125 1.85174C13.4838 2.05875 13.6068 2.51741 13.3998 2.87619C13.1928 3.23496 12.7341 3.358 12.3754 3.15099ZM17.0305 2.46979C17.3234 2.76268 17.3234 3.23755 17.0305 3.53045L9.53053 11.0304C9.23763 11.3233 8.76276 11.3233 8.46987 11.0304L6.21987 8.78045C5.92697 8.48755 5.92697 8.01268 6.21987 7.71979C6.51276 7.42689 6.98763 7.42689 7.28053 7.71979L9.0002 9.43946L15.9699 2.46979C16.2628 2.17689 16.7376 2.17689 17.0305 2.46979Z" fill="#1E2024"/>
</g>
<defs>
<clipPath id="clip0_5243_267">
<rect width="18" height="18" fill="white"/>
</clipPath>
</defs>
</svg>
