<svg width="20" height="20" viewBox="0 0 20 20" fill="none" xmlns="http://www.w3.org/2000/svg">
<path d="M17.5 12.297C15.2837 13.4771 12.8147 14.1204 10.2929 14.1667L9.99998 14.1696C7.3767 14.1696 4.80201 13.5227 2.49998 12.297V15C2.49998 15.4603 2.87308 15.8334 3.33331 15.8334H16.6666C17.1269 15.8334 17.5 15.4603 17.5 15V12.297ZM10.0081 9.16671L10.0936 9.17118C10.5137 9.21389 10.8415 9.56859 10.8415 10C10.8415 10.4315 10.5137 10.7862 10.0936 10.8289L10.0081 10.8334H9.99998C9.53974 10.8334 9.16665 10.4603 9.16665 10C9.16665 9.5398 9.53974 9.16671 9.99998 9.16671H10.0081ZM17.5 6.66671C17.5 6.20647 17.1269 5.83337 16.6666 5.83337H3.33331C2.87308 5.83337 2.49998 6.20647 2.49998 6.66671V10.376C4.75222 11.7646 7.34828 12.5029 9.99998 12.5029L10.2624 12.5004C12.8227 12.4534 15.3221 11.7188 17.5 10.376V6.66671ZM12.5 3.33337C12.5 3.11236 12.4121 2.90046 12.2558 2.74418C12.0996 2.5879 11.8877 2.50004 11.6666 2.50004H8.33331C8.1123 2.50004 7.9004 2.5879 7.74412 2.74418C7.58784 2.90046 7.49998 3.11236 7.49998 3.33337V4.16671H12.5V3.33337ZM14.1666 4.16671H16.6666C18.0474 4.16671 19.1666 5.286 19.1666 6.66671V15C19.1666 16.3808 18.0474 17.5 16.6666 17.5H3.33331C1.9526 17.5 0.833313 16.3808 0.833313 15V6.66671C0.833313 5.286 1.9526 4.16671 3.33331 4.16671H5.83331V3.33337C5.83331 2.67033 6.09689 2.03464 6.56574 1.5658C7.03458 1.09695 7.67027 0.833374 8.33331 0.833374H11.6666C12.3297 0.833374 12.9654 1.09695 13.4342 1.5658C13.9031 2.03464 14.1666 2.67033 14.1666 3.33337V4.16671Z" fill="#858B99"/>
</svg>
