<svg width="28" height="28" viewBox="0 0 28 28" fill="none" xmlns="http://www.w3.org/2000/svg">
<rect width="28" height="28" rx="5" fill="#E3E5E8"/>
<path fill-rule="evenodd" clip-rule="evenodd" d="M17.4282 9.33348C17.2545 9.33348 17.088 9.40248 16.9651 9.5253L9.95872 16.5317C9.8894 16.601 9.83854 16.6867 9.81105 16.7808C9.81104 16.7808 9.81106 16.7808 9.81105 16.7808L9.47124 17.9454L10.6358 17.6056L10.6361 17.6055C10.7304 17.5781 10.8161 17.5273 10.8855 17.4579L17.8913 10.4515C18.0141 10.3287 18.0832 10.1621 18.0832 9.9884C18.0832 9.81471 18.0142 9.64812 17.8913 9.5253C17.7685 9.40248 17.6019 9.33348 17.4282 9.33348ZM16.1402 8.70034C16.4818 8.35873 16.9451 8.16681 17.4282 8.16681C17.9114 8.16681 18.3747 8.35873 18.7163 8.70034C19.0579 9.04196 19.2498 9.50529 19.2498 9.9884C19.2498 10.4715 19.0579 10.9349 18.7163 11.2765L11.7105 18.2829C11.5024 18.491 11.2452 18.6432 10.9626 18.7256C10.9625 18.7256 10.9624 18.7256 10.9623 18.7256L9.2873 19.2144C9.13671 19.2583 8.97703 19.261 8.82508 19.222C8.67313 19.1831 8.53444 19.104 8.42352 18.9931C8.3126 18.8822 8.23354 18.7435 8.19461 18.5916C8.15568 18.4396 8.15832 18.28 8.20224 18.1294L8.69109 16.454C8.77352 16.1717 8.92578 15.9147 9.13376 15.7068C9.13372 15.7068 9.1338 15.7067 9.13376 15.7068L16.1402 8.70034ZM13.4167 18.6667C13.4167 18.3445 13.6778 18.0833 14 18.0833H19.25C19.5722 18.0833 19.8333 18.3445 19.8333 18.6667C19.8333 18.9888 19.5722 19.25 19.25 19.25H14C13.6778 19.25 13.4167 18.9888 13.4167 18.6667Z" fill="#1E2024"/>
</svg>
