<svg width="18" height="18" viewBox="0 0 18 18" fill="none" xmlns="http://www.w3.org/2000/svg">
<g clip-path="url(#clip0_5198_124)">
<path fill-rule="evenodd" clip-rule="evenodd" d="M12.3751 3.15086C11.0378 2.37924 9.47638 2.08941 7.95122 2.3297C6.42607 2.56998 5.02939 3.32586 3.99409 4.47128C2.9588 5.6167 2.34747 7.08243 2.26205 8.62403C2.17664 10.1656 2.6223 11.6899 3.52472 12.9427C4.42713 14.1955 5.73176 15.101 7.22103 15.5083C8.7103 15.9156 10.2942 15.8001 11.7086 15.1809C13.123 14.5618 14.2823 13.4764 14.9934 12.1059C15.7044 10.7354 15.9241 9.16262 15.6158 7.64974C15.5331 7.24387 15.7951 6.8478 16.201 6.76509C16.6068 6.68239 17.0029 6.94437 17.0856 7.35025C17.4624 9.19932 17.1939 11.1217 16.3248 12.7967C15.4558 14.4718 14.0388 15.7983 12.3101 16.555C10.5814 17.3118 8.64554 17.453 6.82532 16.9552C5.0051 16.4574 3.41056 15.3506 2.3076 13.8194C1.20465 12.2882 0.659953 10.4252 0.76435 8.54104C0.868747 6.65686 1.61593 4.86542 2.88129 3.46546C4.14665 2.06551 5.85371 1.14165 7.71778 0.847972C9.58186 0.554291 11.4903 0.908532 13.1248 1.85162C13.4836 2.05863 13.6066 2.51729 13.3996 2.87607C13.1926 3.23484 12.7339 3.35787 12.3751 3.15086ZM17.0303 2.46966C17.3232 2.76256 17.3232 3.23743 17.0303 3.53032L9.53028 11.0303C9.23739 11.3232 8.76252 11.3232 8.46962 11.0303L6.21962 8.78032C5.92673 8.48743 5.92673 8.01256 6.21962 7.71966C6.51252 7.42677 6.98739 7.42677 7.28028 7.71966L8.99995 9.43933L15.9696 2.46966C16.2625 2.17677 16.7374 2.17677 17.0303 2.46966Z" fill="#535964"/>
</g>
<defs>
<clipPath id="clip0_5198_124">
<rect width="18" height="18" fill="white"/>
</clipPath>
</defs>
</svg>
