<svg width="20" height="20" viewBox="0 0 20 20" fill="none" xmlns="http://www.w3.org/2000/svg">
<path fill-rule="evenodd" clip-rule="evenodd" d="M5.83333 2.50001C5.83333 1.57954 6.57953 0.833344 7.5 0.833344H12.5C13.4205 0.833344 14.1667 1.57954 14.1667 2.50001H15C15.663 2.50001 16.2989 2.7634 16.7678 3.23224C17.2366 3.70108 17.5 4.33697 17.5 5.00001V16.6667C17.5 17.3297 17.2366 17.9656 16.7678 18.4344C16.2989 18.9033 15.663 19.1667 15 19.1667H5C4.33696 19.1667 3.70107 18.9033 3.23223 18.4344C2.76339 17.9656 2.5 17.3297 2.5 16.6667V5.00001C2.5 4.33697 2.76339 3.70108 3.23223 3.23224C3.70107 2.7634 4.33696 2.50001 5 2.50001H5.83333ZM5.83333 4.16668H5C4.77899 4.16668 4.56702 4.25447 4.41074 4.41075C4.25446 4.56704 4.16667 4.779 4.16667 5.00001V16.6667C4.16667 16.8877 4.25446 17.0997 4.41074 17.2559C4.56702 17.4122 4.77899 17.5 5 17.5H15C15.221 17.5 15.433 17.4122 15.5893 17.2559C15.7455 17.0997 15.8333 16.8877 15.8333 16.6667V5.00001C15.8333 4.779 15.7455 4.56704 15.5893 4.41075C15.433 4.25447 15.221 4.16668 15 4.16668H14.1667C14.1667 5.08715 13.4205 5.83334 12.5 5.83334H7.5C6.57953 5.83334 5.83333 5.08715 5.83333 4.16668ZM12.5 4.16668H7.5V2.50001H12.5V4.16668ZM5.83333 9.16668C5.83333 8.70644 6.20643 8.33334 6.66667 8.33334H6.675C7.13524 8.33334 7.50833 8.70644 7.50833 9.16668C7.50833 9.62691 7.13524 10 6.675 10H6.66667C6.20643 10 5.83333 9.62691 5.83333 9.16668ZM9.16667 9.16668C9.16667 8.70644 9.53976 8.33334 10 8.33334H13.3333C13.7936 8.33334 14.1667 8.70644 14.1667 9.16668C14.1667 9.62691 13.7936 10 13.3333 10H10C9.53976 10 9.16667 9.62691 9.16667 9.16668ZM5.83333 13.3333C5.83333 12.8731 6.20643 12.5 6.66667 12.5H6.675C7.13524 12.5 7.50833 12.8731 7.50833 13.3333C7.50833 13.7936 7.13524 14.1667 6.675 14.1667H6.66667C6.20643 14.1667 5.83333 13.7936 5.83333 13.3333ZM9.16667 13.3333C9.16667 12.8731 9.53976 12.5 10 12.5H13.3333C13.7936 12.5 14.1667 12.8731 14.1667 13.3333C14.1667 13.7936 13.7936 14.1667 13.3333 14.1667H10C9.53976 14.1667 9.16667 13.7936 9.16667 13.3333Z" fill="#F9FAFA"/>
</svg>
