<svg width="20" height="20" viewBox="0 0 20 20" fill="none" xmlns="http://www.w3.org/2000/svg">
<path fill-rule="evenodd" clip-rule="evenodd" d="M4.16663 3.33341C3.94561 3.33341 3.73365 3.42121 3.57737 3.57749C3.42109 3.73377 3.33329 3.94573 3.33329 4.16675V15.8334C3.33329 16.0544 3.42109 16.2664 3.57737 16.4227C3.73365 16.579 3.94561 16.6667 4.16663 16.6667H7.49996C7.9602 16.6667 8.33329 17.0398 8.33329 17.5001C8.33329 17.9603 7.9602 18.3334 7.49996 18.3334H4.16663C3.50358 18.3334 2.8677 18.07 2.39886 17.6012C1.93002 17.1323 1.66663 16.4965 1.66663 15.8334V4.16675C1.66663 3.50371 1.93002 2.86782 2.39886 2.39898C2.8677 1.93014 3.50358 1.66675 4.16663 1.66675H7.49996C7.9602 1.66675 8.33329 2.03984 8.33329 2.50008C8.33329 2.96032 7.9602 3.33341 7.49996 3.33341H4.16663ZM12.744 5.24416C13.0695 4.91872 13.5971 4.91872 13.9225 5.24416L18.0892 9.41083C18.4147 9.73626 18.4147 10.2639 18.0892 10.5893L13.9225 14.756C13.5971 15.0814 13.0695 15.0814 12.744 14.756C12.4186 14.4306 12.4186 13.9029 12.744 13.5775L15.4881 10.8334H7.49996C7.03972 10.8334 6.66663 10.4603 6.66663 10.0001C6.66663 9.53984 7.03972 9.16675 7.49996 9.16675H15.4881L12.744 6.42267C12.4186 6.09723 12.4186 5.5696 12.744 5.24416Z" fill="#D03E3E"/>
</svg>
