<svg width="20" height="20" viewBox="0 0 20 20" fill="none" xmlns="http://www.w3.org/2000/svg">
<path fill-rule="evenodd" clip-rule="evenodd" d="M10.0007 3.33337C10.4609 3.33337 10.834 3.70647 10.834 4.16671V9.16671H15.834C16.2942 9.16671 16.6673 9.5398 16.6673 10C16.6673 10.4603 16.2942 10.8334 15.834 10.8334H10.834V15.8334C10.834 16.2936 10.4609 16.6667 10.0007 16.6667C9.54041 16.6667 9.16732 16.2936 9.16732 15.8334V10.8334H4.16732C3.70708 10.8334 3.33398 10.4603 3.33398 10C3.33398 9.5398 3.70708 9.16671 4.16732 9.16671H9.16732V4.16671C9.16732 3.70647 9.54041 3.33337 10.0007 3.33337Z" fill="#858B99"/>
</svg>
