<svg width="28" height="28" viewBox="0 0 28 28" fill="none" xmlns="http://www.w3.org/2000/svg">
<rect width="28" height="28" rx="14" fill="#508B26" fill-opacity="0.2"/>
<g clip-path="url(#clip0_3122_2373)">
<path fill-rule="evenodd" clip-rule="evenodd" d="M17.0001 8.80075C15.8114 8.11486 14.4235 7.85723 13.0678 8.07082C11.7121 8.28441 10.4706 8.9563 9.55033 9.97445C8.63007 10.9926 8.08667 12.2955 8.01074 13.6658C7.93482 15.0361 8.33096 16.391 9.13311 17.5046C9.93526 18.6182 11.0949 19.4231 12.4187 19.7852C13.7425 20.1472 15.1504 20.0445 16.4076 19.4941C17.6649 18.9438 18.6954 17.979 19.3275 16.7608C19.9595 15.5426 20.1548 14.1445 19.8807 12.7997C19.8072 12.439 20.0401 12.0869 20.4009 12.0134C20.7617 11.9399 21.1137 12.1728 21.1872 12.5335C21.5221 14.1772 21.2835 15.8859 20.511 17.3748C19.7385 18.8638 18.4789 20.0429 16.9423 20.7156C15.4057 21.3882 13.685 21.5138 12.067 21.0713C10.449 20.6288 9.03164 19.645 8.05123 18.2839C7.07083 16.9229 6.58665 15.2668 6.67945 13.592C6.77225 11.9172 7.43641 10.3248 8.56117 9.08039C9.68594 7.83598 11.2033 7.01478 12.8603 6.75373C14.5172 6.49268 16.2136 6.80756 17.6665 7.64587C17.9854 7.82987 18.0948 8.23757 17.9108 8.55648C17.7267 8.8754 17.3191 8.98476 17.0001 8.80075ZM21.1381 8.19524C21.3984 8.45559 21.3984 8.8777 21.1381 9.13805L14.4714 15.8047C14.211 16.0651 13.7889 16.0651 13.5286 15.8047L11.5286 13.8047C11.2682 13.5444 11.2682 13.1223 11.5286 12.8619C11.7889 12.6016 12.211 12.6016 12.4714 12.8619L14 14.3905L20.1952 8.19524C20.4556 7.93489 20.8777 7.93489 21.1381 8.19524Z" fill="#508B26"/>
</g>
<defs>
<clipPath id="clip0_3122_2373">
<rect width="16" height="16" fill="white" transform="translate(6 6)"/>
</clipPath>
</defs>
</svg>
