<svg width="28" height="28" viewBox="0 0 28 28" fill="none" xmlns="http://www.w3.org/2000/svg">
<rect width="28" height="28" rx="14" fill="#355EC5" fill-opacity="0.2"/>
<g clip-path="url(#clip0_3122_2365)">
<path fill-rule="evenodd" clip-rule="evenodd" d="M14.0001 8.00002C10.6864 8.00002 8.00008 10.6863 8.00008 14C8.00008 17.3137 10.6864 20 14.0001 20C17.3138 20 20.0001 17.3137 20.0001 14C20.0001 10.6863 17.3138 8.00002 14.0001 8.00002ZM6.66675 14C6.66675 9.94993 9.94999 6.66669 14.0001 6.66669C18.0502 6.66669 21.3334 9.94993 21.3334 14C21.3334 18.0501 18.0502 21.3334 14.0001 21.3334C9.94999 21.3334 6.66675 18.0501 6.66675 14ZM14.0001 9.33335C14.3683 9.33335 14.6667 9.63183 14.6667 10V12.9213L16.3686 12.0704C16.6979 11.9057 17.0984 12.0392 17.263 12.3685C17.4277 12.6979 17.2942 13.0983 16.9649 13.263L14.2982 14.5963C14.0916 14.6996 13.8461 14.6886 13.6496 14.5671C13.453 14.4457 13.3334 14.2311 13.3334 14V10C13.3334 9.63183 13.6319 9.33335 14.0001 9.33335Z" fill="#355EC5"/>
</g>
<defs>
<clipPath id="clip0_3122_2365">
<rect width="16" height="16" fill="white" transform="translate(6 6)"/>
</clipPath>
</defs>
</svg>
