<svg width="28" height="28" viewBox="0 0 28 28" fill="none" xmlns="http://www.w3.org/2000/svg">
<rect width="28" height="28" rx="14" fill="#CC3D6A" fill-opacity="0.2"/>
<g clip-path="url(#clip0_3122_2355)">
<path fill-rule="evenodd" clip-rule="evenodd" d="M14.0001 7.99999C10.6864 7.99999 8.00008 10.6863 8.00008 14C8.00008 17.3137 10.6864 20 14.0001 20C17.3138 20 20.0001 17.3137 20.0001 14C20.0001 10.6863 17.3138 7.99999 14.0001 7.99999ZM6.66675 14C6.66675 9.9499 9.94999 6.66666 14.0001 6.66666C18.0502 6.66666 21.3334 9.9499 21.3334 14C21.3334 18.0501 18.0502 21.3333 14.0001 21.3333C9.94999 21.3333 6.66675 18.0501 6.66675 14ZM14.1722 11.3495C13.8618 11.2963 13.5426 11.3546 13.2712 11.5142C12.9997 11.6737 12.7935 11.9242 12.689 12.2212C12.5668 12.5685 12.1862 12.7511 11.8389 12.6289C11.4915 12.5067 11.309 12.1261 11.4312 11.7788C11.6402 11.1847 12.0527 10.6837 12.5956 10.3647C13.1385 10.0456 13.7769 9.92893 14.3976 10.0354C15.0183 10.1419 15.5813 10.4646 15.9868 10.9463C16.3924 11.4281 16.6144 12.0379 16.6134 12.6676L15.9467 12.6667H16.6134C16.6134 12.667 16.6134 12.6673 16.6134 12.6676C16.6129 13.6877 15.8566 14.3613 15.3165 14.7214C15.0261 14.915 14.7405 15.0573 14.53 15.1509C14.4238 15.1981 14.3344 15.2339 14.27 15.2584C14.2378 15.2707 14.2116 15.2802 14.1925 15.287C14.183 15.2904 14.1753 15.2931 14.1694 15.2951L14.162 15.2976L14.1594 15.2985L14.158 15.299C14.1578 15.299 14.1576 15.2991 13.9467 14.6667L13.7359 14.0342C13.7358 14.0342 13.7357 14.0343 13.7356 14.0343L13.7459 14.0307C13.7561 14.0271 13.7729 14.021 13.7954 14.0124C13.8403 13.9953 13.9072 13.9686 13.9885 13.9324C14.153 13.8593 14.3674 13.7517 14.5769 13.612C15.0367 13.3055 15.2801 12.9794 15.2801 12.6667L15.2801 12.6657C15.2806 12.3508 15.1696 12.0459 14.9668 11.805C14.764 11.5641 14.4825 11.4028 14.1722 11.3495ZM13.7346 14.0346C13.3862 14.1516 13.198 14.5286 13.3143 14.8775C13.4307 15.2268 13.8083 15.4155 14.1576 15.2991L13.9467 14.6667C13.7359 14.0342 13.7358 14.0343 13.7356 14.0343L13.7346 14.0346C13.7347 14.0346 13.7345 14.0347 13.7346 14.0346ZM13.3334 17.3333C13.3334 16.9651 13.6319 16.6667 14.0001 16.6667H14.0067C14.3749 16.6667 14.6734 16.9651 14.6734 17.3333C14.6734 17.7015 14.3749 18 14.0067 18H14.0001C13.6319 18 13.3334 17.7015 13.3334 17.3333Z" fill="#CC3D6A"/>
</g>
<defs>
<clipPath id="clip0_3122_2355">
<rect width="16" height="16" fill="white" transform="translate(6 6)"/>
</clipPath>
</defs>
</svg>
