<svg width="77" height="28" viewBox="0 0 77 28" fill="none" xmlns="http://www.w3.org/2000/svg">
<rect width="77" height="28" rx="14" fill="#508B26" fill-opacity="0.2"/>
<g clip-path="url(#clip0_3122_2389)">
<path fill-rule="evenodd" clip-rule="evenodd" d="M17.0001 8.80075C15.8114 8.11486 14.4235 7.85723 13.0678 8.07082C11.7121 8.28441 10.4706 8.9563 9.55033 9.97445C8.63007 10.9926 8.08667 12.2955 8.01074 13.6658C7.93482 15.0361 8.33096 16.391 9.13311 17.5046C9.93526 18.6182 11.0949 19.4231 12.4187 19.7852C13.7425 20.1472 15.1504 20.0445 16.4076 19.4941C17.6649 18.9438 18.6954 17.979 19.3275 16.7608C19.9595 15.5426 20.1548 14.1445 19.8807 12.7997C19.8072 12.439 20.0401 12.0869 20.4009 12.0134C20.7617 11.9399 21.1137 12.1728 21.1872 12.5335C21.5221 14.1772 21.2835 15.8859 20.511 17.3748C19.7385 18.8638 18.4789 20.0429 16.9423 20.7156C15.4057 21.3882 13.685 21.5138 12.067 21.0713C10.449 20.6288 9.03164 19.645 8.05123 18.2839C7.07083 16.9229 6.58665 15.2668 6.67945 13.592C6.77225 11.9172 7.43641 10.3248 8.56117 9.08039C9.68594 7.83598 11.2033 7.01478 12.8603 6.75373C14.5172 6.49268 16.2136 6.80756 17.6665 7.64587C17.9854 7.82987 18.0948 8.23757 17.9108 8.55648C17.7267 8.8754 17.3191 8.98476 17.0001 8.80075ZM21.1381 8.19524C21.3984 8.45559 21.3984 8.8777 21.1381 9.13805L14.4714 15.8047C14.211 16.0651 13.7889 16.0651 13.5286 15.8047L11.5286 13.8047C11.2682 13.5444 11.2682 13.1223 11.5286 12.8619C11.7889 12.6016 12.211 12.6016 12.4714 12.8619L14 14.3905L20.1952 8.19524C20.4556 7.93489 20.8777 7.93489 21.1381 8.19524Z" fill="#508B26"/>
</g>
<path d="M34.924 16.454C35.012 16.454 35.09 16.488 35.158 16.556L35.794 17.246C35.442 17.682 35.008 18.016 34.492 18.248C33.98 18.48 33.364 18.596 32.644 18.596C32 18.596 31.42 18.486 30.904 18.266C30.392 18.046 29.954 17.74 29.59 17.348C29.226 16.956 28.946 16.488 28.75 15.944C28.558 15.4 28.462 14.806 28.462 14.162C28.462 13.51 28.566 12.914 28.774 12.374C28.982 11.83 29.274 11.362 29.65 10.97C30.03 10.578 30.482 10.274 31.006 10.058C31.53 9.838 32.11 9.728 32.746 9.728C33.378 9.728 33.938 9.832 34.426 10.04C34.918 10.248 35.336 10.52 35.68 10.856L35.14 11.606C35.108 11.654 35.066 11.696 35.014 11.732C34.966 11.768 34.898 11.786 34.81 11.786C34.75 11.786 34.688 11.77 34.624 11.738C34.56 11.702 34.49 11.66 34.414 11.612C34.338 11.56 34.25 11.504 34.15 11.444C34.05 11.384 33.934 11.33 33.802 11.282C33.67 11.23 33.516 11.188 33.34 11.156C33.168 11.12 32.968 11.102 32.74 11.102C32.352 11.102 31.996 11.172 31.672 11.312C31.352 11.448 31.076 11.648 30.844 11.912C30.612 12.172 30.432 12.492 30.304 12.872C30.176 13.248 30.112 13.678 30.112 14.162C30.112 14.65 30.18 15.084 30.316 15.464C30.456 15.844 30.644 16.164 30.88 16.424C31.116 16.684 31.394 16.884 31.714 17.024C32.034 17.16 32.378 17.228 32.746 17.228C32.966 17.228 33.164 17.216 33.34 17.192C33.52 17.168 33.684 17.13 33.832 17.078C33.984 17.026 34.126 16.96 34.258 16.88C34.394 16.796 34.528 16.694 34.66 16.574C34.7 16.538 34.742 16.51 34.786 16.49C34.83 16.466 34.876 16.454 34.924 16.454ZM38.1656 9.584V18.5H36.6836V9.584H38.1656ZM42.3662 12.248C42.8222 12.248 43.2362 12.322 43.6082 12.47C43.9842 12.618 44.3042 12.828 44.5682 13.1C44.8362 13.372 45.0422 13.704 45.1862 14.096C45.3302 14.488 45.4022 14.926 45.4022 15.41C45.4022 15.898 45.3302 16.338 45.1862 16.73C45.0422 17.122 44.8362 17.456 44.5682 17.732C44.3042 18.008 43.9842 18.22 43.6082 18.368C43.2362 18.516 42.8222 18.59 42.3662 18.59C41.9062 18.59 41.4882 18.516 41.1122 18.368C40.7362 18.22 40.4142 18.008 40.1462 17.732C39.8822 17.456 39.6762 17.122 39.5282 16.73C39.3842 16.338 39.3122 15.898 39.3122 15.41C39.3122 14.926 39.3842 14.488 39.5282 14.096C39.6762 13.704 39.8822 13.372 40.1462 13.1C40.4142 12.828 40.7362 12.618 41.1122 12.47C41.4882 12.322 41.9062 12.248 42.3662 12.248ZM42.3662 17.45C42.8782 17.45 43.2562 17.278 43.5002 16.934C43.7482 16.59 43.8722 16.086 43.8722 15.422C43.8722 14.758 43.7482 14.252 43.5002 13.904C43.2562 13.556 42.8782 13.382 42.3662 13.382C41.8462 13.382 41.4602 13.558 41.2082 13.91C40.9602 14.258 40.8362 14.762 40.8362 15.422C40.8362 16.082 40.9602 16.586 41.2082 16.934C41.4602 17.278 41.8462 17.45 42.3662 17.45ZM50.2888 13.544C50.2488 13.608 50.2068 13.654 50.1628 13.682C50.1188 13.706 50.0628 13.718 49.9948 13.718C49.9228 13.718 49.8448 13.698 49.7608 13.658C49.6808 13.618 49.5868 13.574 49.4788 13.526C49.3708 13.474 49.2468 13.428 49.1068 13.388C48.9708 13.348 48.8088 13.328 48.6208 13.328C48.3288 13.328 48.0988 13.39 47.9308 13.514C47.7668 13.638 47.6848 13.8 47.6848 14C47.6848 14.132 47.7268 14.244 47.8108 14.336C47.8988 14.424 48.0128 14.502 48.1528 14.57C48.2968 14.638 48.4588 14.7 48.6388 14.756C48.8188 14.808 49.0008 14.866 49.1848 14.93C49.3728 14.994 49.5568 15.068 49.7368 15.152C49.9168 15.232 50.0768 15.336 50.2168 15.464C50.3608 15.588 50.4748 15.738 50.5588 15.914C50.6468 16.09 50.6908 16.302 50.6908 16.55C50.6908 16.846 50.6368 17.12 50.5288 17.372C50.4248 17.62 50.2688 17.836 50.0608 18.02C49.8528 18.2 49.5948 18.342 49.2868 18.446C48.9828 18.546 48.6308 18.596 48.2308 18.596C48.0188 18.596 47.8108 18.576 47.6068 18.536C47.4068 18.5 47.2128 18.448 47.0248 18.38C46.8408 18.312 46.6688 18.232 46.5088 18.14C46.3528 18.048 46.2148 17.948 46.0948 17.84L46.4368 17.276C46.4808 17.208 46.5328 17.156 46.5928 17.12C46.6528 17.084 46.7288 17.066 46.8208 17.066C46.9128 17.066 46.9988 17.092 47.0788 17.144C47.1628 17.196 47.2588 17.252 47.3668 17.312C47.4748 17.372 47.6008 17.428 47.7448 17.48C47.8928 17.532 48.0788 17.558 48.3028 17.558C48.4788 17.558 48.6288 17.538 48.7528 17.498C48.8808 17.454 48.9848 17.398 49.0648 17.33C49.1488 17.262 49.2088 17.184 49.2448 17.096C49.2848 17.004 49.3048 16.91 49.3048 16.814C49.3048 16.67 49.2608 16.552 49.1728 16.46C49.0888 16.368 48.9748 16.288 48.8308 16.22C48.6908 16.152 48.5288 16.092 48.3448 16.04C48.1648 15.984 47.9788 15.924 47.7868 15.86C47.5988 15.796 47.4128 15.722 47.2288 15.638C47.0488 15.55 46.8868 15.44 46.7428 15.308C46.6028 15.176 46.4888 15.014 46.4008 14.822C46.3168 14.63 46.2748 14.398 46.2748 14.126C46.2748 13.874 46.3248 13.634 46.4248 13.406C46.5248 13.178 46.6708 12.98 46.8628 12.812C47.0588 12.64 47.3008 12.504 47.5888 12.404C47.8808 12.3 48.2168 12.248 48.5968 12.248C49.0208 12.248 49.4068 12.318 49.7548 12.458C50.1028 12.598 50.3928 12.782 50.6248 13.01L50.2888 13.544ZM55.7722 14.714C55.7722 14.522 55.7442 14.342 55.6882 14.174C55.6362 14.002 55.5562 13.852 55.4482 13.724C55.3402 13.596 55.2022 13.496 55.0342 13.424C54.8702 13.348 54.6782 13.31 54.4582 13.31C54.0302 13.31 53.6922 13.432 53.4442 13.676C53.2002 13.92 53.0442 14.266 52.9762 14.714H55.7722ZM52.9462 15.608C52.9702 15.924 53.0262 16.198 53.1142 16.43C53.2022 16.658 53.3182 16.848 53.4622 17C53.6062 17.148 53.7762 17.26 53.9722 17.336C54.1722 17.408 54.3922 17.444 54.6322 17.444C54.8722 17.444 55.0782 17.416 55.2502 17.36C55.4262 17.304 55.5782 17.242 55.7062 17.174C55.8382 17.106 55.9522 17.044 56.0482 16.988C56.1482 16.932 56.2442 16.904 56.3362 16.904C56.4602 16.904 56.5522 16.95 56.6122 17.042L57.0382 17.582C56.8742 17.774 56.6902 17.936 56.4862 18.068C56.2822 18.196 56.0682 18.3 55.8442 18.38C55.6242 18.456 55.3982 18.51 55.1662 18.542C54.9382 18.574 54.7162 18.59 54.5002 18.59C54.0722 18.59 53.6742 18.52 53.3062 18.38C52.9382 18.236 52.6182 18.026 52.3462 17.75C52.0742 17.47 51.8602 17.126 51.7042 16.718C51.5482 16.306 51.4702 15.83 51.4702 15.29C51.4702 14.87 51.5382 14.476 51.6742 14.108C51.8102 13.736 52.0042 13.414 52.2562 13.142C52.5122 12.866 52.8222 12.648 53.1862 12.488C53.5542 12.328 53.9682 12.248 54.4282 12.248C54.8162 12.248 55.1742 12.31 55.5022 12.434C55.8302 12.558 56.1122 12.74 56.3482 12.98C56.5842 13.216 56.7682 13.508 56.9002 13.856C57.0362 14.2 57.1042 14.594 57.1042 15.038C57.1042 15.262 57.0802 15.414 57.0322 15.494C56.9842 15.57 56.8922 15.608 56.7562 15.608H52.9462ZM62.0804 13.916C61.9124 13.712 61.7284 13.568 61.5284 13.484C61.3324 13.4 61.1204 13.358 60.8924 13.358C60.6684 13.358 60.4664 13.4 60.2864 13.484C60.1064 13.568 59.9524 13.696 59.8244 13.868C59.6964 14.036 59.5984 14.252 59.5304 14.516C59.4624 14.776 59.4284 15.084 59.4284 15.44C59.4284 15.8 59.4564 16.106 59.5124 16.358C59.5724 16.606 59.6564 16.81 59.7644 16.97C59.8724 17.126 60.0044 17.24 60.1604 17.312C60.3164 17.38 60.4904 17.414 60.6824 17.414C60.9904 17.414 61.2524 17.35 61.4684 17.222C61.6844 17.094 61.8884 16.912 62.0804 16.676V13.916ZM63.5624 9.584V18.5H62.6564C62.4604 18.5 62.3364 18.41 62.2844 18.23L62.1584 17.636C61.9104 17.92 61.6244 18.15 61.3004 18.326C60.9804 18.502 60.6064 18.59 60.1784 18.59C59.8424 18.59 59.5344 18.52 59.2544 18.38C58.9744 18.24 58.7324 18.038 58.5284 17.774C58.3284 17.506 58.1724 17.176 58.0604 16.784C57.9524 16.392 57.8984 15.944 57.8984 15.44C57.8984 14.984 57.9604 14.56 58.0844 14.168C58.2084 13.776 58.3864 13.436 58.6184 13.148C58.8504 12.86 59.1284 12.636 59.4524 12.476C59.7764 12.312 60.1404 12.23 60.5444 12.23C60.8884 12.23 61.1824 12.284 61.4264 12.392C61.6704 12.5 61.8884 12.646 62.0804 12.83V9.584H63.5624Z" fill="#508B26"/>
<defs>
<clipPath id="clip0_3122_2389">
<rect width="16" height="16" fill="white" transform="translate(6 6)"/>
</clipPath>
</defs>
</svg>
