<svg width="100" height="28" viewBox="0 0 100 28" fill="none" xmlns="http://www.w3.org/2000/svg">
<rect width="100" height="28" rx="14" fill="#355EC5" fill-opacity="0.2"/>
<g clip-path="url(#clip0_3122_2381)">
<path fill-rule="evenodd" clip-rule="evenodd" d="M14 8.00002C10.6863 8.00002 7.99996 10.6863 7.99996 14C7.99996 17.3137 10.6863 20 14 20C17.3137 20 20 17.3137 20 14C20 10.6863 17.3137 8.00002 14 8.00002ZM6.66663 14C6.66663 9.94993 9.94987 6.66669 14 6.66669C18.05 6.66669 21.3333 9.94993 21.3333 14C21.3333 18.0501 18.05 21.3334 14 21.3334C9.94987 21.3334 6.66663 18.0501 6.66663 14ZM14 9.33335C14.3681 9.33335 14.6666 9.63183 14.6666 10V12.9213L16.3685 12.0704C16.6978 11.9057 17.0983 12.0392 17.2629 12.3685C17.4276 12.6979 17.2941 13.0983 16.9648 13.263L14.2981 14.5963C14.0914 14.6996 13.846 14.6886 13.6495 14.5671C13.4529 14.4457 13.3333 14.2311 13.3333 14V10C13.3333 9.63183 13.6318 9.33335 14 9.33335Z" fill="#355EC5"/>
</g>
<path d="M30.586 18.5H28.966V9.824H30.586V18.5ZM33.5868 13.1C33.7108 12.976 33.8408 12.862 33.9768 12.758C34.1168 12.65 34.2628 12.56 34.4148 12.488C34.5708 12.412 34.7368 12.354 34.9128 12.314C35.0888 12.27 35.2808 12.248 35.4888 12.248C35.8248 12.248 36.1228 12.306 36.3828 12.422C36.6428 12.534 36.8588 12.694 37.0308 12.902C37.2068 13.106 37.3388 13.352 37.4268 13.64C37.5188 13.924 37.5648 14.238 37.5648 14.582V18.5H36.0828V14.582C36.0828 14.206 35.9968 13.916 35.8248 13.712C35.6528 13.504 35.3908 13.4 35.0388 13.4C34.7828 13.4 34.5428 13.458 34.3188 13.574C34.0948 13.69 33.8828 13.848 33.6828 14.048V18.5H32.2008V12.344H33.1068C33.2988 12.344 33.4248 12.434 33.4848 12.614L33.5868 13.1ZM44.9462 14.186C45.2422 14.186 45.5002 14.15 45.7202 14.078C45.9402 14.002 46.1222 13.896 46.2662 13.76C46.4142 13.62 46.5242 13.452 46.5962 13.256C46.6682 13.056 46.7042 12.834 46.7042 12.59C46.7042 12.358 46.6682 12.148 46.5962 11.96C46.5242 11.772 46.4162 11.612 46.2722 11.48C46.1282 11.348 45.9462 11.248 45.7262 11.18C45.5062 11.108 45.2462 11.072 44.9462 11.072H43.7402V14.186H44.9462ZM44.9462 9.824C45.5262 9.824 46.0282 9.892 46.4522 10.028C46.8762 10.164 47.2262 10.354 47.5022 10.598C47.7782 10.842 47.9822 11.134 48.1142 11.474C48.2502 11.814 48.3182 12.186 48.3182 12.59C48.3182 13.01 48.2482 13.396 48.1082 13.748C47.9682 14.096 47.7582 14.396 47.4782 14.648C47.1982 14.9 46.8462 15.096 46.4222 15.236C46.0022 15.376 45.5102 15.446 44.9462 15.446H43.7402V18.5H42.1262V9.824H44.9462ZM50.6261 13.412C50.8181 13.044 51.0461 12.756 51.3101 12.548C51.5741 12.336 51.8861 12.23 52.2461 12.23C52.5301 12.23 52.7581 12.292 52.9301 12.416L52.8341 13.526C52.8141 13.598 52.7841 13.65 52.7441 13.682C52.7081 13.71 52.6581 13.724 52.5941 13.724C52.5341 13.724 52.4441 13.714 52.3241 13.694C52.2081 13.674 52.0941 13.664 51.9821 13.664C51.8181 13.664 51.6721 13.688 51.5441 13.736C51.4161 13.784 51.3001 13.854 51.1961 13.946C51.0961 14.034 51.0061 14.142 50.9261 14.27C50.8501 14.398 50.7781 14.544 50.7101 14.708V18.5H49.2281V12.344H50.0981C50.2501 12.344 50.3561 12.372 50.4161 12.428C50.4761 12.48 50.5161 12.576 50.5361 12.716L50.6261 13.412ZM56.2529 12.248C56.7089 12.248 57.1229 12.322 57.4949 12.47C57.8709 12.618 58.1909 12.828 58.4549 13.1C58.7229 13.372 58.9289 13.704 59.0729 14.096C59.2169 14.488 59.2889 14.926 59.2889 15.41C59.2889 15.898 59.2169 16.338 59.0729 16.73C58.9289 17.122 58.7229 17.456 58.4549 17.732C58.1909 18.008 57.8709 18.22 57.4949 18.368C57.1229 18.516 56.7089 18.59 56.2529 18.59C55.7929 18.59 55.3749 18.516 54.9989 18.368C54.6229 18.22 54.3009 18.008 54.0329 17.732C53.7689 17.456 53.5629 17.122 53.4149 16.73C53.2709 16.338 53.1989 15.898 53.1989 15.41C53.1989 14.926 53.2709 14.488 53.4149 14.096C53.5629 13.704 53.7689 13.372 54.0329 13.1C54.3009 12.828 54.6229 12.618 54.9989 12.47C55.3749 12.322 55.7929 12.248 56.2529 12.248ZM56.2529 17.45C56.7649 17.45 57.1429 17.278 57.3869 16.934C57.6349 16.59 57.7589 16.086 57.7589 15.422C57.7589 14.758 57.6349 14.252 57.3869 13.904C57.1429 13.556 56.7649 13.382 56.2529 13.382C55.7329 13.382 55.3469 13.558 55.0949 13.91C54.8469 14.258 54.7229 14.762 54.7229 15.422C54.7229 16.082 54.8469 16.586 55.0949 16.934C55.3469 17.278 55.7329 17.45 56.2529 17.45ZM62.6226 15.272C62.8066 15.272 62.9666 15.248 63.1026 15.2C63.2386 15.148 63.3506 15.078 63.4386 14.99C63.5306 14.902 63.5986 14.796 63.6426 14.672C63.6906 14.548 63.7146 14.412 63.7146 14.264C63.7146 13.96 63.6226 13.72 63.4386 13.544C63.2586 13.364 62.9866 13.274 62.6226 13.274C62.2586 13.274 61.9846 13.364 61.8006 13.544C61.6206 13.72 61.5306 13.96 61.5306 14.264C61.5306 14.408 61.5526 14.542 61.5966 14.666C61.6446 14.79 61.7126 14.898 61.8006 14.99C61.8926 15.078 62.0066 15.148 62.1426 15.2C62.2826 15.248 62.4426 15.272 62.6226 15.272ZM64.2966 18.776C64.2966 18.656 64.2606 18.558 64.1886 18.482C64.1166 18.406 64.0186 18.348 63.8946 18.308C63.7706 18.264 63.6246 18.232 63.4566 18.212C63.2926 18.192 63.1166 18.178 62.9286 18.17C62.7446 18.158 62.5526 18.148 62.3526 18.14C62.1566 18.132 61.9646 18.116 61.7766 18.092C61.6126 18.184 61.4786 18.292 61.3746 18.416C61.2746 18.54 61.2246 18.684 61.2246 18.848C61.2246 18.956 61.2506 19.056 61.3026 19.148C61.3586 19.244 61.4446 19.326 61.5606 19.394C61.6806 19.462 61.8346 19.514 62.0226 19.55C62.2106 19.59 62.4406 19.61 62.7126 19.61C62.9886 19.61 63.2266 19.588 63.4266 19.544C63.6266 19.504 63.7906 19.446 63.9186 19.37C64.0506 19.298 64.1466 19.21 64.2066 19.106C64.2666 19.006 64.2966 18.896 64.2966 18.776ZM65.7726 12.554V13.106C65.7726 13.282 65.6666 13.39 65.4546 13.43L64.9026 13.532C64.9866 13.744 65.0286 13.976 65.0286 14.228C65.0286 14.532 64.9666 14.808 64.8426 15.056C64.7226 15.3 64.5546 15.508 64.3386 15.68C64.1226 15.852 63.8666 15.986 63.5706 16.082C63.2786 16.174 62.9626 16.22 62.6226 16.22C62.5026 16.22 62.3866 16.214 62.2746 16.202C62.1626 16.19 62.0526 16.174 61.9446 16.154C61.7526 16.27 61.6566 16.4 61.6566 16.544C61.6566 16.668 61.7126 16.76 61.8246 16.82C61.9406 16.876 62.0926 16.916 62.2806 16.94C62.4686 16.964 62.6826 16.98 62.9226 16.988C63.1626 16.992 63.4086 17.004 63.6606 17.024C63.9126 17.044 64.1586 17.08 64.3986 17.132C64.6386 17.18 64.8526 17.258 65.0406 17.366C65.2286 17.474 65.3786 17.622 65.4906 17.81C65.6066 17.994 65.6646 18.232 65.6646 18.524C65.6646 18.796 65.5966 19.06 65.4606 19.316C65.3286 19.572 65.1346 19.8 64.8786 20C64.6266 20.2 64.3146 20.36 63.9426 20.48C63.5746 20.604 63.1546 20.666 62.6826 20.666C62.2186 20.666 61.8146 20.62 61.4706 20.528C61.1266 20.44 60.8406 20.32 60.6126 20.168C60.3846 20.02 60.2146 19.848 60.1026 19.652C59.9906 19.456 59.9346 19.252 59.9346 19.04C59.9346 18.752 60.0206 18.512 60.1926 18.32C60.3686 18.124 60.6086 17.968 60.9126 17.852C60.7486 17.768 60.6186 17.656 60.5226 17.516C60.4266 17.376 60.3786 17.192 60.3786 16.964C60.3786 16.872 60.3946 16.778 60.4266 16.682C60.4626 16.582 60.5126 16.484 60.5766 16.388C60.6446 16.292 60.7286 16.202 60.8286 16.118C60.9286 16.03 61.0466 15.952 61.1826 15.884C60.8706 15.716 60.6246 15.492 60.4446 15.212C60.2686 14.932 60.1806 14.604 60.1806 14.228C60.1806 13.924 60.2406 13.65 60.3606 13.406C60.4846 13.158 60.6546 12.948 60.8706 12.776C61.0906 12.6 61.3486 12.466 61.6446 12.374C61.9446 12.282 62.2706 12.236 62.6226 12.236C62.8866 12.236 63.1346 12.264 63.3666 12.32C63.5986 12.372 63.8106 12.45 64.0026 12.554H65.7726ZM68.1105 13.412C68.3025 13.044 68.5305 12.756 68.7945 12.548C69.0585 12.336 69.3705 12.23 69.7305 12.23C70.0145 12.23 70.2425 12.292 70.4145 12.416L70.3185 13.526C70.2985 13.598 70.2685 13.65 70.2285 13.682C70.1925 13.71 70.1425 13.724 70.0785 13.724C70.0185 13.724 69.9285 13.714 69.8085 13.694C69.6925 13.674 69.5785 13.664 69.4665 13.664C69.3025 13.664 69.1565 13.688 69.0285 13.736C68.9005 13.784 68.7845 13.854 68.6805 13.946C68.5805 14.034 68.4905 14.142 68.4105 14.27C68.3345 14.398 68.2625 14.544 68.1945 14.708V18.5H66.7125V12.344H67.5825C67.7345 12.344 67.8405 12.372 67.9005 12.428C67.9605 12.48 68.0005 12.576 68.0205 12.716L68.1105 13.412ZM74.9793 14.714C74.9793 14.522 74.9513 14.342 74.8953 14.174C74.8433 14.002 74.7633 13.852 74.6553 13.724C74.5473 13.596 74.4093 13.496 74.2413 13.424C74.0773 13.348 73.8853 13.31 73.6653 13.31C73.2373 13.31 72.8993 13.432 72.6513 13.676C72.4073 13.92 72.2513 14.266 72.1833 14.714H74.9793ZM72.1533 15.608C72.1773 15.924 72.2333 16.198 72.3213 16.43C72.4093 16.658 72.5253 16.848 72.6693 17C72.8133 17.148 72.9833 17.26 73.1793 17.336C73.3793 17.408 73.5993 17.444 73.8393 17.444C74.0793 17.444 74.2853 17.416 74.4573 17.36C74.6333 17.304 74.7853 17.242 74.9133 17.174C75.0453 17.106 75.1593 17.044 75.2553 16.988C75.3553 16.932 75.4513 16.904 75.5433 16.904C75.6673 16.904 75.7593 16.95 75.8193 17.042L76.2453 17.582C76.0813 17.774 75.8973 17.936 75.6933 18.068C75.4893 18.196 75.2753 18.3 75.0513 18.38C74.8313 18.456 74.6053 18.51 74.3733 18.542C74.1453 18.574 73.9233 18.59 73.7073 18.59C73.2793 18.59 72.8813 18.52 72.5133 18.38C72.1453 18.236 71.8253 18.026 71.5533 17.75C71.2813 17.47 71.0673 17.126 70.9113 16.718C70.7553 16.306 70.6772 15.83 70.6772 15.29C70.6772 14.87 70.7453 14.476 70.8813 14.108C71.0173 13.736 71.2113 13.414 71.4633 13.142C71.7193 12.866 72.0293 12.648 72.3933 12.488C72.7613 12.328 73.1753 12.248 73.6353 12.248C74.0233 12.248 74.3813 12.31 74.7093 12.434C75.0373 12.558 75.3193 12.74 75.5553 12.98C75.7913 13.216 75.9753 13.508 76.1073 13.856C76.2433 14.2 76.3112 14.594 76.3112 15.038C76.3112 15.262 76.2873 15.414 76.2393 15.494C76.1913 15.57 76.0993 15.608 75.9633 15.608H72.1533ZM81.1794 13.544C81.1394 13.608 81.0974 13.654 81.0534 13.682C81.0094 13.706 80.9534 13.718 80.8854 13.718C80.8134 13.718 80.7354 13.698 80.6514 13.658C80.5714 13.618 80.4774 13.574 80.3694 13.526C80.2614 13.474 80.1374 13.428 79.9974 13.388C79.8614 13.348 79.6994 13.328 79.5114 13.328C79.2194 13.328 78.9894 13.39 78.8214 13.514C78.6574 13.638 78.5754 13.8 78.5754 14C78.5754 14.132 78.6174 14.244 78.7014 14.336C78.7894 14.424 78.9034 14.502 79.0434 14.57C79.1874 14.638 79.3494 14.7 79.5294 14.756C79.7094 14.808 79.8914 14.866 80.0754 14.93C80.2634 14.994 80.4474 15.068 80.6274 15.152C80.8074 15.232 80.9674 15.336 81.1074 15.464C81.2514 15.588 81.3654 15.738 81.4494 15.914C81.5374 16.09 81.5814 16.302 81.5814 16.55C81.5814 16.846 81.5274 17.12 81.4194 17.372C81.3154 17.62 81.1594 17.836 80.9514 18.02C80.7434 18.2 80.4854 18.342 80.1774 18.446C79.8734 18.546 79.5214 18.596 79.1214 18.596C78.9094 18.596 78.7014 18.576 78.4974 18.536C78.2974 18.5 78.1034 18.448 77.9154 18.38C77.7314 18.312 77.5594 18.232 77.3994 18.14C77.2434 18.048 77.1054 17.948 76.9854 17.84L77.3274 17.276C77.3714 17.208 77.4234 17.156 77.4834 17.12C77.5434 17.084 77.6194 17.066 77.7114 17.066C77.8034 17.066 77.8894 17.092 77.9694 17.144C78.0534 17.196 78.1494 17.252 78.2574 17.312C78.3654 17.372 78.4914 17.428 78.6354 17.48C78.7834 17.532 78.9694 17.558 79.1934 17.558C79.3694 17.558 79.5194 17.538 79.6434 17.498C79.7714 17.454 79.8754 17.398 79.9554 17.33C80.0394 17.262 80.0994 17.184 80.1354 17.096C80.1754 17.004 80.1954 16.91 80.1954 16.814C80.1954 16.67 80.1514 16.552 80.0634 16.46C79.9794 16.368 79.8654 16.288 79.7214 16.22C79.5814 16.152 79.4194 16.092 79.2354 16.04C79.0554 15.984 78.8694 15.924 78.6774 15.86C78.4894 15.796 78.3034 15.722 78.1194 15.638C77.9394 15.55 77.7774 15.44 77.6334 15.308C77.4934 15.176 77.3794 15.014 77.2914 14.822C77.2074 14.63 77.1654 14.398 77.1654 14.126C77.1654 13.874 77.2154 13.634 77.3154 13.406C77.4154 13.178 77.5614 12.98 77.7534 12.812C77.9494 12.64 78.1914 12.504 78.4794 12.404C78.7714 12.3 79.1074 12.248 79.4874 12.248C79.9114 12.248 80.2974 12.318 80.6454 12.458C80.9934 12.598 81.2834 12.782 81.5154 13.01L81.1794 13.544ZM86.4528 13.544C86.4128 13.608 86.3708 13.654 86.3268 13.682C86.2828 13.706 86.2268 13.718 86.1588 13.718C86.0868 13.718 86.0088 13.698 85.9248 13.658C85.8448 13.618 85.7508 13.574 85.6428 13.526C85.5348 13.474 85.4108 13.428 85.2708 13.388C85.1348 13.348 84.9728 13.328 84.7848 13.328C84.4928 13.328 84.2628 13.39 84.0948 13.514C83.9308 13.638 83.8488 13.8 83.8488 14C83.8488 14.132 83.8908 14.244 83.9748 14.336C84.0628 14.424 84.1768 14.502 84.3168 14.57C84.4608 14.638 84.6228 14.7 84.8028 14.756C84.9828 14.808 85.1648 14.866 85.3488 14.93C85.5368 14.994 85.7208 15.068 85.9008 15.152C86.0808 15.232 86.2408 15.336 86.3808 15.464C86.5248 15.588 86.6388 15.738 86.7228 15.914C86.8108 16.09 86.8548 16.302 86.8548 16.55C86.8548 16.846 86.8008 17.12 86.6928 17.372C86.5888 17.62 86.4328 17.836 86.2248 18.02C86.0168 18.2 85.7588 18.342 85.4508 18.446C85.1468 18.546 84.7948 18.596 84.3948 18.596C84.1828 18.596 83.9748 18.576 83.7708 18.536C83.5708 18.5 83.3768 18.448 83.1888 18.38C83.0048 18.312 82.8328 18.232 82.6728 18.14C82.5168 18.048 82.3788 17.948 82.2588 17.84L82.6008 17.276C82.6448 17.208 82.6968 17.156 82.7568 17.12C82.8168 17.084 82.8928 17.066 82.9848 17.066C83.0768 17.066 83.1628 17.092 83.2428 17.144C83.3268 17.196 83.4228 17.252 83.5308 17.312C83.6388 17.372 83.7648 17.428 83.9088 17.48C84.0568 17.532 84.2428 17.558 84.4668 17.558C84.6428 17.558 84.7928 17.538 84.9168 17.498C85.0448 17.454 85.1488 17.398 85.2288 17.33C85.3128 17.262 85.3728 17.184 85.4088 17.096C85.4488 17.004 85.4688 16.91 85.4688 16.814C85.4688 16.67 85.4248 16.552 85.3368 16.46C85.2528 16.368 85.1388 16.288 84.9948 16.22C84.8548 16.152 84.6928 16.092 84.5088 16.04C84.3288 15.984 84.1428 15.924 83.9508 15.86C83.7628 15.796 83.5768 15.722 83.3928 15.638C83.2128 15.55 83.0508 15.44 82.9068 15.308C82.7668 15.176 82.6528 15.014 82.5648 14.822C82.4808 14.63 82.4388 14.398 82.4388 14.126C82.4388 13.874 82.4888 13.634 82.5888 13.406C82.6888 13.178 82.8348 12.98 83.0268 12.812C83.2228 12.64 83.4648 12.504 83.7528 12.404C84.0448 12.3 84.3808 12.248 84.7608 12.248C85.1848 12.248 85.5708 12.318 85.9188 12.458C86.2668 12.598 86.5568 12.782 86.7888 13.01L86.4528 13.544Z" fill="#355EC5"/>
<defs>
<clipPath id="clip0_3122_2381">
<rect width="16" height="16" fill="white" transform="translate(6 6)"/>
</clipPath>
</defs>
</svg>
