<svg width="78" height="28" viewBox="0 0 78 28" fill="none" xmlns="http://www.w3.org/2000/svg">
<rect width="78" height="28" rx="14" fill="#CC3D6A" fill-opacity="0.2"/>
<g clip-path="url(#clip0_3122_2345)">
<path fill-rule="evenodd" clip-rule="evenodd" d="M14 7.99999C10.6863 7.99999 7.99996 10.6863 7.99996 14C7.99996 17.3137 10.6863 20 14 20C17.3137 20 20 17.3137 20 14C20 10.6863 17.3137 7.99999 14 7.99999ZM6.66663 14C6.66663 9.9499 9.94987 6.66666 14 6.66666C18.05 6.66666 21.3333 9.9499 21.3333 14C21.3333 18.0501 18.05 21.3333 14 21.3333C9.94987 21.3333 6.66663 18.0501 6.66663 14ZM14.172 11.3495C13.8617 11.2963 13.5425 11.3546 13.2711 11.5142C12.9996 11.6737 12.7933 11.9242 12.6888 12.2212C12.5667 12.5685 12.1861 12.7511 11.8387 12.6289C11.4914 12.5067 11.3089 12.1261 11.4311 11.7788C11.6401 11.1847 12.0525 10.6837 12.5955 10.3647C13.1384 10.0456 13.7768 9.92893 14.3974 10.0354C15.0181 10.1419 15.5811 10.4646 15.9867 10.9463C16.3923 11.4281 16.6142 12.0379 16.6133 12.6676L15.9466 12.6667H16.6133C16.6133 12.667 16.6133 12.6673 16.6133 12.6676C16.6128 13.6877 15.8565 14.3613 15.3164 14.7214C15.026 14.915 14.7403 15.0573 14.5299 15.1509C14.4237 15.1981 14.3343 15.2339 14.2699 15.2584C14.2376 15.2707 14.2115 15.2802 14.1924 15.287C14.1829 15.2904 14.1751 15.2931 14.1693 15.2951L14.1619 15.2976L14.1593 15.2985L14.1578 15.299C14.1576 15.299 14.1574 15.2991 13.9466 14.6667L13.7358 14.0342C13.7357 14.0342 13.7356 14.0343 13.7355 14.0343L13.7457 14.0307C13.756 14.0271 13.7728 14.021 13.7952 14.0124C13.8402 13.9953 13.907 13.9686 13.9884 13.9324C14.1529 13.8593 14.3672 13.7517 14.5768 13.612C15.0366 13.3055 15.28 12.9794 15.28 12.6667L15.28 12.6657C15.2804 12.3508 15.1694 12.0459 14.9667 11.805C14.7639 11.5641 14.4824 11.4028 14.172 11.3495ZM13.7345 14.0346C13.386 14.1516 13.1979 14.5286 13.3142 14.8775C13.4306 15.2268 13.8081 15.4155 14.1574 15.2991L13.9466 14.6667C13.7358 14.0342 13.7356 14.0343 13.7355 14.0343L13.7345 14.0346C13.7345 14.0346 13.7344 14.0347 13.7345 14.0346ZM13.3333 17.3333C13.3333 16.9651 13.6318 16.6667 14 16.6667H14.0066C14.3748 16.6667 14.6733 16.9651 14.6733 17.3333C14.6733 17.7015 14.3748 18 14.0066 18H14C13.6318 18 13.3333 17.7015 13.3333 17.3333Z" fill="#CC3D6A"/>
</g>
<path d="M33.55 15.224L32.494 12.338C32.442 12.21 32.388 12.058 32.332 11.882C32.276 11.706 32.22 11.516 32.164 11.312C32.112 11.516 32.058 11.708 32.002 11.888C31.946 12.064 31.892 12.218 31.84 12.35L30.79 15.224H33.55ZM36.4 18.5H35.152C35.012 18.5 34.898 18.466 34.81 18.398C34.722 18.326 34.656 18.238 34.612 18.134L33.964 16.364H30.37L29.722 18.134C29.69 18.226 29.628 18.31 29.536 18.386C29.444 18.462 29.33 18.5 29.194 18.5H27.934L31.348 9.824H32.992L36.4 18.5ZM38.5343 16.904C38.7023 17.108 38.8843 17.252 39.0803 17.336C39.2803 17.42 39.4903 17.462 39.7103 17.462C39.9383 17.462 40.1423 17.422 40.3223 17.342C40.5063 17.258 40.6623 17.13 40.7903 16.958C40.9183 16.782 41.0163 16.56 41.0843 16.292C41.1523 16.02 41.1863 15.696 41.1863 15.32C41.1863 14.644 41.0743 14.156 40.8503 13.856C40.6263 13.552 40.3043 13.4 39.8843 13.4C39.6003 13.4 39.3523 13.466 39.1403 13.598C38.9283 13.726 38.7263 13.908 38.5343 14.144V16.904ZM38.5343 13.1C38.7823 12.84 39.0563 12.634 39.3563 12.482C39.6603 12.326 40.0063 12.248 40.3943 12.248C40.7503 12.248 41.0703 12.318 41.3543 12.458C41.6423 12.598 41.8863 12.8 42.0863 13.064C42.2903 13.324 42.4463 13.64 42.5543 14.012C42.6623 14.384 42.7163 14.802 42.7163 15.266C42.7163 15.766 42.6543 16.22 42.5303 16.628C42.4063 17.036 42.2283 17.386 41.9963 17.678C41.7683 17.966 41.4923 18.19 41.1683 18.35C40.8443 18.51 40.4843 18.59 40.0883 18.59C39.8963 18.59 39.7223 18.57 39.5663 18.53C39.4103 18.494 39.2663 18.442 39.1343 18.374C39.0023 18.306 38.8803 18.224 38.7683 18.128C38.6603 18.028 38.5563 17.918 38.4563 17.798L38.3903 18.212C38.3663 18.316 38.3243 18.39 38.2643 18.434C38.2083 18.478 38.1303 18.5 38.0303 18.5H37.0523V9.584H38.5343V13.1ZM47.8269 14.714C47.8269 14.522 47.7989 14.342 47.7429 14.174C47.6909 14.002 47.6109 13.852 47.5029 13.724C47.3949 13.596 47.2569 13.496 47.0889 13.424C46.9249 13.348 46.7329 13.31 46.5129 13.31C46.0849 13.31 45.7469 13.432 45.4989 13.676C45.2549 13.92 45.0989 14.266 45.0309 14.714H47.8269ZM45.0009 15.608C45.0249 15.924 45.0809 16.198 45.1689 16.43C45.2569 16.658 45.3729 16.848 45.5169 17C45.6609 17.148 45.8309 17.26 46.0269 17.336C46.2269 17.408 46.4469 17.444 46.6869 17.444C46.9269 17.444 47.1329 17.416 47.3049 17.36C47.4809 17.304 47.6329 17.242 47.7609 17.174C47.8929 17.106 48.0069 17.044 48.1029 16.988C48.2029 16.932 48.2989 16.904 48.3909 16.904C48.5149 16.904 48.6069 16.95 48.6669 17.042L49.0929 17.582C48.9289 17.774 48.7449 17.936 48.5409 18.068C48.3369 18.196 48.1229 18.3 47.8989 18.38C47.6789 18.456 47.4529 18.51 47.2209 18.542C46.9929 18.574 46.7709 18.59 46.5549 18.59C46.1269 18.59 45.7289 18.52 45.3609 18.38C44.9929 18.236 44.6729 18.026 44.4009 17.75C44.1289 17.47 43.9149 17.126 43.7589 16.718C43.6029 16.306 43.5249 15.83 43.5249 15.29C43.5249 14.87 43.5929 14.476 43.7289 14.108C43.8649 13.736 44.0589 13.414 44.3109 13.142C44.5669 12.866 44.8769 12.648 45.2409 12.488C45.6089 12.328 46.0229 12.248 46.4829 12.248C46.8709 12.248 47.2289 12.31 47.5569 12.434C47.8849 12.558 48.1669 12.74 48.4029 12.98C48.6389 13.216 48.8229 13.508 48.9549 13.856C49.0909 14.2 49.1589 14.594 49.1589 15.038C49.1589 15.262 49.1349 15.414 49.0869 15.494C49.0389 15.57 48.9469 15.608 48.8109 15.608H45.0009ZM51.6691 13.412C51.8611 13.044 52.0891 12.756 52.3531 12.548C52.6171 12.336 52.9291 12.23 53.2891 12.23C53.5731 12.23 53.8011 12.292 53.9731 12.416L53.8771 13.526C53.8571 13.598 53.8271 13.65 53.7871 13.682C53.7511 13.71 53.7011 13.724 53.6371 13.724C53.5771 13.724 53.4871 13.714 53.3671 13.694C53.2511 13.674 53.1371 13.664 53.0251 13.664C52.8611 13.664 52.7151 13.688 52.5871 13.736C52.4591 13.784 52.3431 13.854 52.2391 13.946C52.1391 14.034 52.0491 14.142 51.9691 14.27C51.8931 14.398 51.8211 14.544 51.7531 14.708V18.5H50.2711V12.344H51.1411C51.2931 12.344 51.3991 12.372 51.4591 12.428C51.5191 12.48 51.5591 12.576 51.5791 12.716L51.6691 13.412ZM56.7996 18.596C56.2636 18.596 55.8516 18.446 55.5636 18.146C55.2796 17.842 55.1376 17.424 55.1376 16.892V13.454H54.5076C54.4276 13.454 54.3596 13.428 54.3036 13.376C54.2476 13.324 54.2196 13.246 54.2196 13.142V12.554L55.2096 12.392L55.5216 10.712C55.5416 10.632 55.5796 10.57 55.6356 10.526C55.6916 10.482 55.7636 10.46 55.8516 10.46H56.6196V12.398H58.2636V13.454H56.6196V16.79C56.6196 16.982 56.6656 17.132 56.7576 17.24C56.8536 17.348 56.9836 17.402 57.1476 17.402C57.2396 17.402 57.3156 17.392 57.3756 17.372C57.4396 17.348 57.4936 17.324 57.5376 17.3C57.5856 17.276 57.6276 17.254 57.6636 17.234C57.6996 17.21 57.7356 17.198 57.7716 17.198C57.8156 17.198 57.8516 17.21 57.8796 17.234C57.9076 17.254 57.9376 17.286 57.9696 17.33L58.4136 18.05C58.1976 18.23 57.9496 18.366 57.6696 18.458C57.3896 18.55 57.0996 18.596 56.7996 18.596ZM61.8896 12.248C62.3456 12.248 62.7596 12.322 63.1316 12.47C63.5076 12.618 63.8276 12.828 64.0916 13.1C64.3596 13.372 64.5656 13.704 64.7096 14.096C64.8536 14.488 64.9256 14.926 64.9256 15.41C64.9256 15.898 64.8536 16.338 64.7096 16.73C64.5656 17.122 64.3596 17.456 64.0916 17.732C63.8276 18.008 63.5076 18.22 63.1316 18.368C62.7596 18.516 62.3456 18.59 61.8896 18.59C61.4296 18.59 61.0116 18.516 60.6356 18.368C60.2596 18.22 59.9376 18.008 59.6696 17.732C59.4056 17.456 59.1996 17.122 59.0516 16.73C58.9076 16.338 58.8356 15.898 58.8356 15.41C58.8356 14.926 58.9076 14.488 59.0516 14.096C59.1996 13.704 59.4056 13.372 59.6696 13.1C59.9376 12.828 60.2596 12.618 60.6356 12.47C61.0116 12.322 61.4296 12.248 61.8896 12.248ZM61.8896 17.45C62.4016 17.45 62.7796 17.278 63.0236 16.934C63.2716 16.59 63.3956 16.086 63.3956 15.422C63.3956 14.758 63.2716 14.252 63.0236 13.904C62.7796 13.556 62.4016 13.382 61.8896 13.382C61.3696 13.382 60.9836 13.558 60.7316 13.91C60.4836 14.258 60.3596 14.762 60.3596 15.422C60.3596 16.082 60.4836 16.586 60.7316 16.934C60.9836 17.278 61.3696 17.45 61.8896 17.45Z" fill="#CC3D6A"/>
<defs>
<clipPath id="clip0_3122_2345">
<rect width="16" height="16" fill="white" transform="translate(6 6)"/>
</clipPath>
</defs>
</svg>
