<svg width="70" height="28" viewBox="0 0 70 28" fill="none" xmlns="http://www.w3.org/2000/svg">
<rect width="70" height="28" rx="14" fill="#CC3D6A" fill-opacity="0.2"/>
<g clip-path="url(#clip0_3122_2345)">
<path fill-rule="evenodd" clip-rule="evenodd" d="M14 7.99999C10.6863 7.99999 7.99996 10.6863 7.99996 14C7.99996 17.3137 10.6863 20 14 20C17.3137 20 20 17.3137 20 14C20 10.6863 17.3137 7.99999 14 7.99999ZM6.66663 14C6.66663 9.9499 9.94987 6.66666 14 6.66666C18.05 6.66666 21.3333 9.9499 21.3333 14C21.3333 18.0501 18.05 21.3333 14 21.3333C9.94987 21.3333 6.66663 18.0501 6.66663 14ZM14.172 11.3495C13.8617 11.2963 13.5425 11.3546 13.2711 11.5142C12.9996 11.6737 12.7933 11.9242 12.6888 12.2212C12.5667 12.5685 12.1861 12.7511 11.8387 12.6289C11.4914 12.5067 11.3089 12.1261 11.4311 11.7788C11.6401 11.1847 12.0525 10.6837 12.5955 10.3647C13.1384 10.0456 13.7768 9.92893 14.3974 10.0354C15.0181 10.1419 15.5811 10.4646 15.9867 10.9463C16.3923 11.4281 16.6142 12.0379 16.6133 12.6676L15.9466 12.6667H16.6133C16.6133 12.667 16.6133 12.6673 16.6133 12.6676C16.6128 13.6877 15.8565 14.3613 15.3164 14.7214C15.026 14.915 14.7403 15.0573 14.5299 15.1509C14.4237 15.1981 14.3343 15.2339 14.2699 15.2584C14.2376 15.2707 14.2115 15.2802 14.1924 15.287C14.1829 15.2904 14.1751 15.2931 14.1693 15.2951L14.1619 15.2976L14.1593 15.2985L14.1578 15.299C14.1576 15.299 14.1574 15.2991 13.9466 14.6667L13.7358 14.0342C13.7357 14.0342 13.7356 14.0343 13.7355 14.0343L13.7457 14.0307C13.756 14.0271 13.7728 14.021 13.7952 14.0124C13.8402 13.9953 13.907 13.9686 13.9884 13.9324C14.1529 13.8593 14.3672 13.7517 14.5768 13.612C15.0366 13.3055 15.28 12.9794 15.28 12.6667L15.28 12.6657C15.2804 12.3508 15.1694 12.0459 14.9667 11.805C14.7639 11.5641 14.4824 11.4028 14.172 11.3495ZM13.7345 14.0346C13.386 14.1516 13.1979 14.5286 13.3142 14.8775C13.4306 15.2268 13.8081 15.4155 14.1574 15.2991L13.9466 14.6667C13.7358 14.0342 13.7356 14.0343 13.7355 14.0343L13.7345 14.0346C13.7345 14.0346 13.7344 14.0347 13.7345 14.0346ZM13.3333 17.3333C13.3333 16.9651 13.6318 16.6667 14 16.6667H14.0066C14.3748 16.6667 14.6733 16.9651 14.6733 17.3333C14.6733 17.7015 14.3748 18 14.0066 18H14C13.6318 18 13.3333 17.7015 13.3333 17.3333Z" fill="#CC3D6A"/>
</g>
<path d="M37.24 14.162C37.24 14.798 37.134 15.388 36.922 15.932C36.714 16.472 36.418 16.94 36.034 17.336C35.65 17.732 35.188 18.042 34.648 18.266C34.108 18.486 33.508 18.596 32.848 18.596C32.192 18.596 31.594 18.486 31.054 18.266C30.514 18.042 30.05 17.732 29.662 17.336C29.278 16.94 28.98 16.472 28.768 15.932C28.556 15.388 28.45 14.798 28.45 14.162C28.45 13.526 28.556 12.938 28.768 12.398C28.98 11.854 29.278 11.384 29.662 10.988C30.05 10.592 30.514 10.284 31.054 10.064C31.594 9.84 32.192 9.728 32.848 9.728C33.288 9.728 33.702 9.78 34.09 9.884C34.478 9.984 34.834 10.128 35.158 10.316C35.482 10.5 35.772 10.726 36.028 10.994C36.288 11.258 36.508 11.554 36.688 11.882C36.868 12.21 37.004 12.566 37.096 12.95C37.192 13.334 37.24 13.738 37.24 14.162ZM35.59 14.162C35.59 13.686 35.526 13.26 35.398 12.884C35.27 12.504 35.088 12.182 34.852 11.918C34.616 11.654 34.328 11.452 33.988 11.312C33.652 11.172 33.272 11.102 32.848 11.102C32.424 11.102 32.042 11.172 31.702 11.312C31.366 11.452 31.078 11.654 30.838 11.918C30.602 12.182 30.42 12.504 30.292 12.884C30.164 13.26 30.1 13.686 30.1 14.162C30.1 14.638 30.164 15.066 30.292 15.446C30.42 15.822 30.602 16.142 30.838 16.406C31.078 16.666 31.366 16.866 31.702 17.006C32.042 17.146 32.424 17.216 32.848 17.216C33.272 17.216 33.652 17.146 33.988 17.006C34.328 16.866 34.616 16.666 34.852 16.406C35.088 16.142 35.27 15.822 35.398 15.446C35.526 15.066 35.59 14.638 35.59 14.162ZM39.7999 16.904C39.9679 17.108 40.1499 17.252 40.3459 17.336C40.5459 17.42 40.7619 17.462 40.9939 17.462C41.2179 17.462 41.4199 17.42 41.5999 17.336C41.7799 17.252 41.9319 17.124 42.0559 16.952C42.1839 16.78 42.2819 16.564 42.3499 16.304C42.4179 16.04 42.4519 15.73 42.4519 15.374C42.4519 15.014 42.4219 14.71 42.3619 14.462C42.3059 14.21 42.2239 14.006 42.1159 13.85C42.0079 13.694 41.8759 13.58 41.7199 13.508C41.5679 13.436 41.3939 13.4 41.1979 13.4C40.8899 13.4 40.6279 13.466 40.4119 13.598C40.1959 13.726 39.9919 13.908 39.7999 14.144V16.904ZM39.7219 13.184C39.9739 12.9 40.2599 12.67 40.5799 12.494C40.8999 12.318 41.2759 12.23 41.7079 12.23C42.0439 12.23 42.3499 12.3 42.6259 12.44C42.9059 12.58 43.1459 12.784 43.3459 13.052C43.5499 13.316 43.7059 13.644 43.8139 14.036C43.9259 14.424 43.9819 14.87 43.9819 15.374C43.9819 15.834 43.9199 16.26 43.7959 16.652C43.6719 17.044 43.4939 17.384 43.2619 17.672C43.0339 17.96 42.7559 18.186 42.4279 18.35C42.1039 18.51 41.7399 18.59 41.3359 18.59C40.9919 18.59 40.6979 18.538 40.4539 18.434C40.2099 18.326 39.9919 18.178 39.7999 17.99V20.51H38.3179V12.344H39.2239C39.4159 12.344 39.5419 12.434 39.6019 12.614L39.7219 13.184ZM49.1043 14.714C49.1043 14.522 49.0763 14.342 49.0203 14.174C48.9683 14.002 48.8883 13.852 48.7803 13.724C48.6723 13.596 48.5343 13.496 48.3663 13.424C48.2023 13.348 48.0103 13.31 47.7903 13.31C47.3623 13.31 47.0243 13.432 46.7763 13.676C46.5323 13.92 46.3763 14.266 46.3083 14.714H49.1043ZM46.2783 15.608C46.3023 15.924 46.3583 16.198 46.4463 16.43C46.5343 16.658 46.6503 16.848 46.7943 17C46.9383 17.148 47.1083 17.26 47.3043 17.336C47.5043 17.408 47.7243 17.444 47.9643 17.444C48.2043 17.444 48.4103 17.416 48.5823 17.36C48.7583 17.304 48.9103 17.242 49.0383 17.174C49.1703 17.106 49.2843 17.044 49.3803 16.988C49.4803 16.932 49.5763 16.904 49.6683 16.904C49.7923 16.904 49.8843 16.95 49.9443 17.042L50.3703 17.582C50.2063 17.774 50.0223 17.936 49.8183 18.068C49.6143 18.196 49.4003 18.3 49.1763 18.38C48.9563 18.456 48.7303 18.51 48.4983 18.542C48.2703 18.574 48.0483 18.59 47.8323 18.59C47.4043 18.59 47.0063 18.52 46.6383 18.38C46.2703 18.236 45.9503 18.026 45.6783 17.75C45.4063 17.47 45.1923 17.126 45.0363 16.718C44.8803 16.306 44.8022 15.83 44.8022 15.29C44.8022 14.87 44.8703 14.476 45.0063 14.108C45.1423 13.736 45.3363 13.414 45.5883 13.142C45.8443 12.866 46.1543 12.648 46.5183 12.488C46.8863 12.328 47.3003 12.248 47.7603 12.248C48.1483 12.248 48.5063 12.31 48.8343 12.434C49.1623 12.558 49.4443 12.74 49.6803 12.98C49.9163 13.216 50.1003 13.508 50.2323 13.856C50.3683 14.2 50.4362 14.594 50.4362 15.038C50.4362 15.262 50.4123 15.414 50.3643 15.494C50.3163 15.57 50.2243 15.608 50.0883 15.608H46.2783ZM52.9344 13.1C53.0584 12.976 53.1884 12.862 53.3244 12.758C53.4644 12.65 53.6104 12.56 53.7624 12.488C53.9184 12.412 54.0844 12.354 54.2604 12.314C54.4364 12.27 54.6284 12.248 54.8364 12.248C55.1724 12.248 55.4704 12.306 55.7304 12.422C55.9904 12.534 56.2064 12.694 56.3784 12.902C56.5544 13.106 56.6864 13.352 56.7744 13.64C56.8664 13.924 56.9124 14.238 56.9124 14.582V18.5H55.4304V14.582C55.4304 14.206 55.3444 13.916 55.1724 13.712C55.0004 13.504 54.7384 13.4 54.3864 13.4C54.1304 13.4 53.8904 13.458 53.6664 13.574C53.4424 13.69 53.2304 13.848 53.0304 14.048V18.5H51.5484V12.344H52.4544C52.6464 12.344 52.7724 12.434 52.8324 12.614L52.9344 13.1Z" fill="#CC3D6A"/>
<defs>
<clipPath id="clip0_3122_2345">
<rect width="16" height="16" fill="white" transform="translate(6 6)"/>
</clipPath>
</defs>
</svg>
