<svg width="99" height="28" viewBox="0 0 99 28" fill="none" xmlns="http://www.w3.org/2000/svg">
<rect width="99" height="28" rx="14" fill="#355EC5" fill-opacity="0.2"/>
<g clip-path="url(#clip0_3137_13322)">
<path fill-rule="evenodd" clip-rule="evenodd" d="M14.0003 8.00008C10.6866 8.00008 8.00033 10.6864 8.00033 14.0001C8.00033 17.3138 10.6866 20.0001 14.0003 20.0001C17.314 20.0001 20.0003 17.3138 20.0003 14.0001C20.0003 10.6864 17.314 8.00008 14.0003 8.00008ZM6.66699 14.0001C6.66699 9.94999 9.95024 6.66675 14.0003 6.66675C18.0504 6.66675 21.3337 9.94999 21.3337 14.0001C21.3337 18.0502 18.0504 21.3334 14.0003 21.3334C9.95024 21.3334 6.66699 18.0502 6.66699 14.0001ZM14.0003 9.33341C14.3685 9.33341 14.667 9.63189 14.667 10.0001V12.9214L16.3689 12.0705C16.6982 11.9058 17.0986 12.0393 17.2633 12.3686C17.4279 12.6979 17.2945 13.0984 16.9651 13.263L14.2985 14.5964C14.0918 14.6997 13.8464 14.6887 13.6498 14.5672C13.4533 14.4457 13.3337 14.2311 13.3337 14.0001V10.0001C13.3337 9.63189 13.6321 9.33341 14.0003 9.33341Z" fill="#355EC5"/>
</g>
<path d="M30.262 18.5H29.098V9.902H30.262V18.5ZM33.1235 13.304C33.2555 13.156 33.3955 13.022 33.5435 12.902C33.6915 12.782 33.8475 12.68 34.0115 12.596C34.1795 12.508 34.3555 12.442 34.5395 12.398C34.7275 12.35 34.9295 12.326 35.1455 12.326C35.4775 12.326 35.7695 12.382 36.0215 12.494C36.2775 12.602 36.4895 12.758 36.6575 12.962C36.8295 13.162 36.9595 13.404 37.0475 13.688C37.1355 13.972 37.1795 14.286 37.1795 14.63V18.5H36.1055V14.63C36.1055 14.17 35.9995 13.814 35.7875 13.562C35.5795 13.306 35.2615 13.178 34.8335 13.178C34.5175 13.178 34.2215 13.254 33.9455 13.406C33.6735 13.558 33.4215 13.764 33.1895 14.024V18.5H32.1155V12.422H32.7575C32.9095 12.422 33.0035 12.496 33.0395 12.644L33.1235 13.304ZM44.6673 14.36C44.9993 14.36 45.2913 14.316 45.5433 14.228C45.7993 14.14 46.0133 14.018 46.1853 13.862C46.3613 13.702 46.4933 13.512 46.5813 13.292C46.6693 13.072 46.7133 12.83 46.7133 12.566C46.7133 12.018 46.5433 11.59 46.2033 11.282C45.8673 10.974 45.3553 10.82 44.6673 10.82H43.2873V14.36H44.6673ZM44.6673 9.902C45.2113 9.902 45.6833 9.966 46.0833 10.094C46.4873 10.218 46.8213 10.396 47.0853 10.628C47.3493 10.86 47.5453 11.14 47.6732 11.468C47.8053 11.796 47.8713 12.162 47.8713 12.566C47.8713 12.966 47.8013 13.332 47.6613 13.664C47.5213 13.996 47.3153 14.282 47.0433 14.522C46.7753 14.762 46.4413 14.95 46.0413 15.086C45.6453 15.218 45.1873 15.284 44.6673 15.284H43.2873V18.5H42.1293V9.902H44.6673ZM49.9811 13.64C50.1731 13.224 50.4091 12.9 50.6891 12.668C50.9691 12.432 51.3111 12.314 51.7151 12.314C51.8431 12.314 51.9651 12.328 52.0811 12.356C52.2011 12.384 52.3071 12.428 52.3991 12.488L52.3211 13.286C52.2971 13.386 52.2371 13.436 52.1411 13.436C52.0851 13.436 52.0031 13.424 51.8951 13.4C51.7871 13.376 51.6651 13.364 51.5291 13.364C51.3371 13.364 51.1651 13.392 51.0131 13.448C50.8651 13.504 50.7311 13.588 50.6111 13.7C50.4951 13.808 50.3891 13.944 50.2931 14.108C50.2011 14.268 50.1171 14.452 50.0411 14.66V18.5H48.9671V12.422H49.5791C49.6951 12.422 49.7751 12.444 49.8191 12.488C49.8631 12.532 49.8931 12.608 49.9091 12.716L49.9811 13.64ZM55.6541 12.326C56.0981 12.326 56.4981 12.4 56.8541 12.548C57.2101 12.696 57.5141 12.906 57.7661 13.178C58.0181 13.45 58.2101 13.78 58.3421 14.168C58.4781 14.552 58.5461 14.982 58.5461 15.458C58.5461 15.938 58.4781 16.37 58.3421 16.754C58.2101 17.138 58.0181 17.466 57.7661 17.738C57.5141 18.01 57.2101 18.22 56.8541 18.368C56.4981 18.512 56.0981 18.584 55.6541 18.584C55.2061 18.584 54.8021 18.512 54.4421 18.368C54.0861 18.22 53.7821 18.01 53.5301 17.738C53.2781 17.466 53.0841 17.138 52.9481 16.754C52.8161 16.37 52.7501 15.938 52.7501 15.458C52.7501 14.982 52.8161 14.552 52.9481 14.168C53.0841 13.78 53.2781 13.45 53.5301 13.178C53.7821 12.906 54.0861 12.696 54.4421 12.548C54.8021 12.4 55.2061 12.326 55.6541 12.326ZM55.6541 17.75C56.2541 17.75 56.7021 17.55 56.9981 17.15C57.2941 16.746 57.4421 16.184 57.4421 15.464C57.4421 14.74 57.2941 14.176 56.9981 13.772C56.7021 13.368 56.2541 13.166 55.6541 13.166C55.3501 13.166 55.0841 13.218 54.8561 13.322C54.6321 13.426 54.4441 13.576 54.2921 13.772C54.1441 13.968 54.0321 14.21 53.9561 14.498C53.8841 14.782 53.8481 15.104 53.8481 15.464C53.8481 16.184 53.9961 16.746 54.2921 17.15C54.5921 17.55 55.0461 17.75 55.6541 17.75ZM61.9835 15.53C62.1995 15.53 62.3895 15.5 62.5535 15.44C62.7175 15.38 62.8555 15.296 62.9675 15.188C63.0795 15.08 63.1635 14.952 63.2195 14.804C63.2755 14.652 63.3035 14.486 63.3035 14.306C63.3035 13.934 63.1895 13.638 62.9615 13.418C62.7375 13.198 62.4115 13.088 61.9835 13.088C61.5515 13.088 61.2215 13.198 60.9935 13.418C60.7695 13.638 60.6575 13.934 60.6575 14.306C60.6575 14.486 60.6855 14.652 60.7415 14.804C60.8015 14.952 60.8875 15.08 60.9995 15.188C61.1115 15.296 61.2495 15.38 61.4135 15.44C61.5775 15.5 61.7675 15.53 61.9835 15.53ZM63.9095 18.83C63.9095 18.682 63.8675 18.562 63.7835 18.47C63.6995 18.378 63.5855 18.306 63.4415 18.254C63.3015 18.202 63.1375 18.166 62.9495 18.146C62.7615 18.122 62.5615 18.104 62.3495 18.092C62.1415 18.08 61.9295 18.068 61.7135 18.056C61.4975 18.044 61.2895 18.024 61.0895 17.996C60.8655 18.1 60.6815 18.232 60.5375 18.392C60.3975 18.548 60.3275 18.732 60.3275 18.944C60.3275 19.08 60.3615 19.206 60.4295 19.322C60.5015 19.442 60.6095 19.544 60.7535 19.628C60.8975 19.716 61.0775 19.784 61.2935 19.832C61.5135 19.884 61.7715 19.91 62.0675 19.91C62.3555 19.91 62.6135 19.884 62.8415 19.832C63.0695 19.78 63.2615 19.706 63.4175 19.61C63.5775 19.514 63.6995 19.4 63.7835 19.268C63.8675 19.136 63.9095 18.99 63.9095 18.83ZM64.9955 12.662V13.058C64.9955 13.19 64.9115 13.274 64.7435 13.31L64.0535 13.4C64.1895 13.664 64.2575 13.956 64.2575 14.276C64.2575 14.572 64.1995 14.842 64.0835 15.086C63.9715 15.326 63.8155 15.532 63.6155 15.704C63.4155 15.876 63.1755 16.008 62.8955 16.1C62.6155 16.192 62.3115 16.238 61.9835 16.238C61.6995 16.238 61.4315 16.204 61.1795 16.136C61.0515 16.216 60.9535 16.302 60.8855 16.394C60.8175 16.482 60.7835 16.572 60.7835 16.664C60.7835 16.808 60.8415 16.918 60.9575 16.994C61.0775 17.066 61.2335 17.118 61.4255 17.15C61.6175 17.182 61.8355 17.202 62.0795 17.21C62.3275 17.218 62.5795 17.232 62.8355 17.252C63.0955 17.268 63.3475 17.298 63.5915 17.342C63.8395 17.386 64.0595 17.458 64.2515 17.558C64.4435 17.658 64.5975 17.796 64.7135 17.972C64.8335 18.148 64.8935 18.376 64.8935 18.656C64.8935 18.916 64.8275 19.168 64.6955 19.412C64.5675 19.656 64.3815 19.872 64.1375 20.06C63.8935 20.252 63.5935 20.404 63.2375 20.516C62.8855 20.632 62.4875 20.69 62.0435 20.69C61.5995 20.69 61.2115 20.646 60.8795 20.558C60.5475 20.47 60.2715 20.352 60.0515 20.204C59.8315 20.056 59.6655 19.884 59.5535 19.688C59.4455 19.496 59.3915 19.294 59.3915 19.082C59.3915 18.782 59.4855 18.528 59.6735 18.32C59.8615 18.112 60.1195 17.946 60.4475 17.822C60.2675 17.742 60.1235 17.636 60.0155 17.504C59.9115 17.368 59.8595 17.186 59.8595 16.958C59.8595 16.87 59.8755 16.78 59.9075 16.688C59.9395 16.592 59.9875 16.498 60.0515 16.406C60.1195 16.31 60.2015 16.22 60.2975 16.136C60.3935 16.052 60.5055 15.978 60.6335 15.914C60.3335 15.746 60.0995 15.524 59.9315 15.248C59.7635 14.968 59.6795 14.644 59.6795 14.276C59.6795 13.98 59.7355 13.712 59.8475 13.472C59.9635 13.228 60.1235 13.022 60.3275 12.854C60.5315 12.682 60.7735 12.55 61.0535 12.458C61.3375 12.366 61.6475 12.32 61.9835 12.32C62.2475 12.32 62.4935 12.35 62.7215 12.41C62.9495 12.466 63.1575 12.55 63.3455 12.662H64.9955ZM67.1139 13.64C67.3059 13.224 67.5419 12.9 67.8219 12.668C68.1019 12.432 68.4439 12.314 68.8479 12.314C68.9759 12.314 69.0979 12.328 69.2139 12.356C69.3339 12.384 69.4399 12.428 69.5319 12.488L69.4539 13.286C69.4299 13.386 69.3699 13.436 69.2739 13.436C69.2179 13.436 69.1359 13.424 69.0279 13.4C68.9199 13.376 68.7979 13.364 68.6619 13.364C68.4699 13.364 68.2979 13.392 68.1459 13.448C67.9979 13.504 67.8639 13.588 67.7439 13.7C67.6279 13.808 67.5219 13.944 67.4259 14.108C67.3339 14.268 67.2499 14.452 67.1739 14.66V18.5H66.0999V12.422H66.7119C66.8279 12.422 66.9079 12.444 66.9519 12.488C66.9959 12.532 67.0259 12.608 67.0419 12.716L67.1139 13.64ZM74.2929 14.798C74.2929 14.55 74.2569 14.324 74.1849 14.12C74.1169 13.912 74.0149 13.734 73.8789 13.586C73.7469 13.434 73.5849 13.318 73.3929 13.238C73.2009 13.154 72.9829 13.112 72.7389 13.112C72.2269 13.112 71.8209 13.262 71.5209 13.562C71.2249 13.858 71.0409 14.27 70.9689 14.798H74.2929ZM75.1569 17.648C75.0249 17.808 74.8669 17.948 74.6829 18.068C74.4989 18.184 74.3009 18.28 74.0889 18.356C73.8809 18.432 73.6649 18.488 73.4409 18.524C73.2169 18.564 72.9949 18.584 72.7749 18.584C72.3549 18.584 71.9669 18.514 71.6109 18.374C71.2589 18.23 70.9529 18.022 70.6929 17.75C70.4369 17.474 70.2369 17.134 70.0929 16.73C69.9489 16.326 69.8769 15.862 69.8769 15.338C69.8769 14.914 69.9409 14.518 70.0689 14.15C70.2009 13.782 70.3889 13.464 70.6329 13.196C70.8769 12.924 71.1749 12.712 71.5269 12.56C71.8789 12.404 72.2749 12.326 72.7149 12.326C73.0789 12.326 73.4149 12.388 73.7229 12.512C74.0349 12.632 74.3029 12.808 74.5269 13.04C74.7549 13.268 74.9329 13.552 75.0609 13.892C75.1889 14.228 75.2529 14.612 75.2529 15.044C75.2529 15.212 75.2349 15.324 75.1989 15.38C75.1629 15.436 75.0949 15.464 74.9949 15.464H70.9329C70.9449 15.848 70.9969 16.182 71.0889 16.466C71.1849 16.75 71.3169 16.988 71.4849 17.18C71.6529 17.368 71.8529 17.51 72.0849 17.606C72.3169 17.698 72.5769 17.744 72.8649 17.744C73.1329 17.744 73.3629 17.714 73.5549 17.654C73.7509 17.59 73.9189 17.522 74.0589 17.45C74.1989 17.378 74.3149 17.312 74.4069 17.252C74.5029 17.188 74.5849 17.156 74.6529 17.156C74.7409 17.156 74.8089 17.19 74.8569 17.258L75.1569 17.648ZM80.1048 13.424C80.0568 13.512 79.9828 13.556 79.8828 13.556C79.8228 13.556 79.7548 13.534 79.6788 13.49C79.6028 13.446 79.5088 13.398 79.3968 13.346C79.2888 13.29 79.1588 13.24 79.0068 13.196C78.8548 13.148 78.6748 13.124 78.4668 13.124C78.2868 13.124 78.1248 13.148 77.9808 13.196C77.8368 13.24 77.7128 13.302 77.6088 13.382C77.5088 13.462 77.4308 13.556 77.3748 13.664C77.3228 13.768 77.2968 13.882 77.2968 14.006C77.2968 14.162 77.3408 14.292 77.4288 14.396C77.5208 14.5 77.6408 14.59 77.7888 14.666C77.9368 14.742 78.1048 14.81 78.2928 14.87C78.4808 14.926 78.6728 14.988 78.8688 15.056C79.0688 15.12 79.2628 15.192 79.4508 15.272C79.6388 15.352 79.8068 15.452 79.9548 15.572C80.1028 15.692 80.2208 15.84 80.3088 16.016C80.4008 16.188 80.4468 16.396 80.4468 16.64C80.4468 16.92 80.3968 17.18 80.2968 17.42C80.1968 17.656 80.0488 17.862 79.8528 18.038C79.6568 18.21 79.4168 18.346 79.1328 18.446C78.8488 18.546 78.5208 18.596 78.1488 18.596C77.7248 18.596 77.3408 18.528 76.9968 18.392C76.6528 18.252 76.3608 18.074 76.1208 17.858L76.3728 17.45C76.4048 17.398 76.4428 17.358 76.4868 17.33C76.5308 17.302 76.5868 17.288 76.6548 17.288C76.7268 17.288 76.8028 17.316 76.8828 17.372C76.9628 17.428 77.0588 17.49 77.1708 17.558C77.2868 17.626 77.4268 17.688 77.5908 17.744C77.7548 17.8 77.9588 17.828 78.2028 17.828C78.4108 17.828 78.5928 17.802 78.7487 17.75C78.9048 17.694 79.0348 17.62 79.1388 17.528C79.2428 17.436 79.3188 17.33 79.3668 17.21C79.4188 17.09 79.4448 16.962 79.4448 16.826C79.4448 16.658 79.3988 16.52 79.3068 16.412C79.2188 16.3 79.1008 16.206 78.9528 16.13C78.8048 16.05 78.6348 15.982 78.4428 15.926C78.2548 15.866 78.0608 15.804 77.8608 15.74C77.6648 15.676 77.4708 15.604 77.2788 15.524C77.0908 15.44 76.9228 15.336 76.7748 15.212C76.6268 15.088 76.5068 14.936 76.4148 14.756C76.3268 14.572 76.2828 14.35 76.2828 14.09C76.2828 13.858 76.3308 13.636 76.4268 13.424C76.5228 13.208 76.6628 13.02 76.8468 12.86C77.0308 12.696 77.2568 12.566 77.5248 12.47C77.7928 12.374 78.0988 12.326 78.4428 12.326C78.8428 12.326 79.2008 12.39 79.5168 12.518C79.8368 12.642 80.1128 12.814 80.3448 13.034L80.1048 13.424ZM85.2962 13.424C85.2482 13.512 85.1742 13.556 85.0742 13.556C85.0142 13.556 84.9462 13.534 84.8702 13.49C84.7942 13.446 84.7002 13.398 84.5882 13.346C84.4802 13.29 84.3502 13.24 84.1982 13.196C84.0462 13.148 83.8662 13.124 83.6582 13.124C83.4782 13.124 83.3162 13.148 83.1722 13.196C83.0282 13.24 82.9042 13.302 82.8002 13.382C82.7002 13.462 82.6222 13.556 82.5662 13.664C82.5142 13.768 82.4882 13.882 82.4882 14.006C82.4882 14.162 82.5322 14.292 82.6202 14.396C82.7122 14.5 82.8322 14.59 82.9802 14.666C83.1282 14.742 83.2962 14.81 83.4842 14.87C83.6722 14.926 83.8642 14.988 84.0602 15.056C84.2602 15.12 84.4542 15.192 84.6422 15.272C84.8302 15.352 84.9982 15.452 85.1462 15.572C85.2942 15.692 85.4122 15.84 85.5002 16.016C85.5922 16.188 85.6382 16.396 85.6382 16.64C85.6382 16.92 85.5882 17.18 85.4882 17.42C85.3882 17.656 85.2402 17.862 85.0442 18.038C84.8482 18.21 84.6082 18.346 84.3242 18.446C84.0402 18.546 83.7122 18.596 83.3402 18.596C82.9162 18.596 82.5322 18.528 82.1882 18.392C81.8442 18.252 81.5522 18.074 81.3122 17.858L81.5642 17.45C81.5962 17.398 81.6342 17.358 81.6782 17.33C81.7222 17.302 81.7782 17.288 81.8462 17.288C81.9182 17.288 81.9942 17.316 82.0742 17.372C82.1542 17.428 82.2502 17.49 82.3622 17.558C82.4782 17.626 82.6182 17.688 82.7822 17.744C82.9462 17.8 83.1502 17.828 83.3942 17.828C83.6022 17.828 83.7842 17.802 83.9402 17.75C84.0962 17.694 84.2262 17.62 84.3302 17.528C84.4342 17.436 84.5102 17.33 84.5582 17.21C84.6102 17.09 84.6362 16.962 84.6362 16.826C84.6362 16.658 84.5902 16.52 84.4982 16.412C84.4102 16.3 84.2922 16.206 84.1442 16.13C83.9962 16.05 83.8262 15.982 83.6342 15.926C83.4462 15.866 83.2522 15.804 83.0522 15.74C82.8562 15.676 82.6622 15.604 82.4702 15.524C82.2822 15.44 82.1142 15.336 81.9662 15.212C81.8182 15.088 81.6982 14.936 81.6062 14.756C81.5182 14.572 81.4742 14.35 81.4742 14.09C81.4742 13.858 81.5222 13.636 81.6182 13.424C81.7142 13.208 81.8542 13.02 82.0382 12.86C82.2222 12.696 82.4482 12.566 82.7162 12.47C82.9842 12.374 83.2902 12.326 83.6342 12.326C84.0342 12.326 84.3922 12.39 84.7082 12.518C85.0282 12.642 85.3042 12.814 85.5362 13.034L85.2962 13.424Z" fill="#355EC5"/>
<defs>
<clipPath id="clip0_3137_13322">
<rect width="16" height="16" fill="white" transform="translate(6 6)"/>
</clipPath>
</defs>
</svg>
