<svg width="14" height="14" viewBox="0 0 14 14" fill="none" xmlns="http://www.w3.org/2000/svg">
<path fill-rule="evenodd" clip-rule="evenodd" d="M5.44405 1.94389C5.30717 2.08077 5.25033 2.23155 5.25033 2.3335V2.91683H8.75033V2.3335C8.75033 2.23155 8.69348 2.08077 8.5566 1.94389C8.41971 1.80701 8.26894 1.75016 8.16699 1.75016H5.83366C5.73171 1.75016 5.58094 1.80701 5.44405 1.94389ZM9.91699 2.91683V2.3335C9.91699 1.85211 9.68217 1.41955 9.38155 1.11893C9.08094 0.818315 8.64838 0.583496 8.16699 0.583496H5.83366C5.35227 0.583496 4.91971 0.818315 4.6191 1.11893C4.31848 1.41955 4.08366 1.85211 4.08366 2.3335V2.91683H1.75033C1.42816 2.91683 1.16699 3.178 1.16699 3.50016C1.16699 3.82233 1.42816 4.0835 1.75033 4.0835H2.33366V11.6668C2.33366 12.1482 2.56848 12.5808 2.8691 12.8814C3.16971 13.182 3.60227 13.4168 4.08366 13.4168H9.91699C10.3984 13.4168 10.8309 13.182 11.1316 12.8814C11.4322 12.5808 11.667 12.1482 11.667 11.6668V4.0835H12.2503C12.5725 4.0835 12.8337 3.82233 12.8337 3.50016C12.8337 3.178 12.5725 2.91683 12.2503 2.91683H9.91699ZM3.50033 4.0835V11.6668C3.50033 11.7688 3.55717 11.9196 3.69405 12.0564C3.83094 12.1933 3.98171 12.2502 4.08366 12.2502H9.91699C10.0189 12.2502 10.1697 12.1933 10.3066 12.0564C10.4435 11.9196 10.5003 11.7688 10.5003 11.6668V4.0835H3.50033Z" fill="#D03E3E"/>
</svg>
