<svg width="28" height="28" viewBox="0 0 28 28" fill="none" xmlns="http://www.w3.org/2000/svg">
<rect width="28" height="28" rx="5" fill="#E3E5E8"/>
<path fill-rule="evenodd" clip-rule="evenodd" d="M12.4438 8.94365C12.3069 9.08053 12.2501 9.2313 12.2501 9.33325V9.91659H15.7501V9.33325C15.7501 9.2313 15.6932 9.08053 15.5564 8.94365C15.4195 8.80677 15.2687 8.74992 15.1667 8.74992H12.8334C12.7315 8.74992 12.5807 8.80677 12.4438 8.94365ZM16.9167 9.91659V9.33325C16.9167 8.85187 16.6819 8.41931 16.3813 8.11869C16.0807 7.81807 15.6481 7.58325 15.1667 7.58325H12.8334C12.352 7.58325 11.9195 7.81807 11.6189 8.11869C11.3182 8.41931 11.0834 8.85187 11.0834 9.33325V9.91659H8.75008C8.42792 9.91659 8.16675 10.1778 8.16675 10.4999C8.16675 10.8221 8.42792 11.0833 8.75008 11.0833H9.33341V18.6666C9.33341 19.148 9.56823 19.5805 9.86885 19.8811C10.1695 20.1818 10.602 20.4166 11.0834 20.4166H16.9167C17.3981 20.4166 17.8307 20.1818 18.1313 19.8811C18.4319 19.5805 18.6667 19.148 18.6667 18.6666V11.0833H19.2501C19.5722 11.0833 19.8334 10.8221 19.8334 10.4999C19.8334 10.1778 19.5722 9.91659 19.2501 9.91659H16.9167ZM10.5001 11.0833V18.6666C10.5001 18.7685 10.5569 18.9193 10.6938 19.0562C10.8307 19.1931 10.9815 19.2499 11.0834 19.2499H16.9167C17.0187 19.2499 17.1695 19.1931 17.3064 19.0562C17.4432 18.9193 17.5001 18.7685 17.5001 18.6666V11.0833H10.5001Z" fill="#D03E3E"/>
</svg>
