<svg width="20" height="20" viewBox="0 0 20 20" fill="none" xmlns="http://www.w3.org/2000/svg">
<g clip-path="url(#clip0_3149_5572)">
<path fill-rule="evenodd" clip-rule="evenodd" d="M10 2.49992C5.85791 2.49992 2.50004 5.85778 2.50004 9.99992C2.50004 12.2264 3.47024 14.2263 5.01095 15.5999C5.06505 15.0225 5.31875 14.479 5.73227 14.0655C6.20111 13.5966 6.837 13.3333 7.50004 13.3333H12.5C13.1631 13.3333 13.799 13.5966 14.2678 14.0655C14.6813 14.479 14.935 15.0225 14.9891 15.5999C16.5298 14.2263 17.5 12.2264 17.5 9.99992C17.5 5.85778 14.1422 2.49992 10 2.49992ZM13.3334 16.7203V15.8333C13.3334 15.6122 13.2456 15.4003 13.0893 15.244C12.933 15.0877 12.7211 14.9999 12.5 14.9999H7.50004C7.27903 14.9999 7.06707 15.0877 6.91079 15.244C6.7545 15.4003 6.66671 15.6122 6.66671 15.8333V16.7203C7.67084 17.2193 8.80267 17.4999 10 17.4999C11.1974 17.4999 12.3292 17.2193 13.3334 16.7203ZM0.833374 9.99992C0.833374 4.93731 4.93743 0.833252 10 0.833252C15.0627 0.833252 19.1667 4.93731 19.1667 9.99992C19.1667 15.0625 15.0627 19.1666 10 19.1666C4.93743 19.1666 0.833374 15.0625 0.833374 9.99992ZM10 6.66659C9.07957 6.66659 8.33337 7.41278 8.33337 8.33325C8.33337 9.25373 9.07957 9.99992 10 9.99992C10.9205 9.99992 11.6667 9.25373 11.6667 8.33325C11.6667 7.41278 10.9205 6.66659 10 6.66659ZM6.66671 8.33325C6.66671 6.4923 8.15909 4.99992 10 4.99992C11.841 4.99992 13.3334 6.4923 13.3334 8.33325C13.3334 10.1742 11.841 11.6666 10 11.6666C8.15909 11.6666 6.66671 10.1742 6.66671 8.33325Z" fill="#E3E5E8"/>
</g>
<defs>
<clipPath id="clip0_3149_5572">
<rect width="20" height="20" fill="white"/>
</clipPath>
</defs>
</svg>
