<svg width="32" height="33" viewBox="0 0 32 33" fill="none" xmlns="http://www.w3.org/2000/svg">
<rect y="0.5" width="32" height="32" rx="16" fill="#2E3DA3"/>
<path d="M11.1834 21.422C11.5988 21.422 11.9698 21.352 12.2964 21.212C12.6231 21.072 12.8984 20.876 13.1224 20.624C13.3511 20.372 13.5238 20.071 13.6404 19.721C13.7618 19.371 13.8224 18.986 13.8224 18.566V12.469H15.1734V18.566C15.1734 19.1447 15.0801 19.6813 14.8934 20.176C14.7114 20.6707 14.4478 21.1 14.1024 21.464C13.7618 21.8233 13.3441 22.1057 12.8494 22.311C12.3548 22.5163 11.7994 22.619 11.1834 22.619C10.5674 22.619 10.0121 22.5163 9.51745 22.311C9.02278 22.1057 8.60278 21.8233 8.25745 21.464C7.91211 21.1 7.64611 20.6707 7.45945 20.176C7.27745 19.6813 7.18645 19.1447 7.18645 18.566V12.469H8.53745V18.559C8.53745 18.979 8.59578 19.364 8.71245 19.714C8.83378 20.064 9.00645 20.365 9.23045 20.617C9.45911 20.869 9.73678 21.0673 10.0634 21.212C10.3948 21.352 10.7681 21.422 11.1834 21.422ZM24.1019 18.776L22.5269 14.695C22.4803 14.5737 22.4313 14.4337 22.3799 14.275C22.3286 14.1117 22.2796 13.939 22.2329 13.757C22.1349 14.135 22.0346 14.45 21.9319 14.702L20.3569 18.776H24.1019ZM26.9299 22.5H25.8799C25.7586 22.5 25.6606 22.4697 25.5859 22.409C25.5113 22.3483 25.4553 22.2713 25.4179 22.178L24.4799 19.756H19.9789L19.0409 22.178C19.0129 22.262 18.9593 22.3367 18.8799 22.402C18.8006 22.4673 18.7026 22.5 18.5859 22.5H17.5359L21.5469 12.469H22.9189L26.9299 22.5Z" fill="#F9FAFA"/>
</svg>
