<svg width="41" height="40" viewBox="0 0 41 40" fill="none" xmlns="http://www.w3.org/2000/svg">
<path d="M20.0498 10.8365C20.1996 10.8291 20.3497 10.8254 20.5 10.8254C20.6503 10.8254 20.8004 10.8291 20.9502 10.8365L21.4268 1.13387C21.1184 1.11872 20.8094 1.11111 20.5 1.11111C20.1906 1.11111 19.8816 1.11872 19.5732 1.13387L20.0498 10.8365Z" fill="url(#paint0_linear_3139_18692)"/>
<path d="M18.2707 11.1004C18.562 11.0274 18.8567 10.9688 19.1538 10.9247L17.7284 1.31556C17.1169 1.40628 16.5101 1.52697 15.9104 1.67719L18.2707 11.1004Z" fill="url(#paint1_linear_3139_18692)"/>
<path d="M21.8462 10.9247C22.1432 10.9688 22.4379 11.0274 22.7292 11.1004L25.0896 1.67719C24.4899 1.52697 23.8831 1.40628 23.2716 1.31556L21.8462 10.9247Z" fill="url(#paint2_linear_3139_18692)"/>
<path d="M16.989 11.5238C17.1278 11.4663 17.268 11.4122 17.4092 11.3617L14.1365 2.21528C13.8458 2.3193 13.5574 2.43054 13.2715 2.54895C12.9856 2.66735 12.7031 2.79264 12.4239 2.92465L16.5773 11.7063C16.7129 11.6421 16.8501 11.5813 16.989 11.5238Z" fill="url(#paint3_linear_3139_18692)"/>
<path d="M23.5908 11.3617C23.732 11.4122 23.8721 11.4663 24.011 11.5238C24.1498 11.5813 24.2871 11.6421 24.4226 11.7063L28.576 2.92465C28.2969 2.79264 28.0143 2.66735 27.7285 2.54895C27.4426 2.43054 27.1542 2.3193 26.8635 2.21528L23.5908 11.3617Z" fill="url(#paint4_linear_3139_18692)"/>
<path d="M15.0347 12.6309C15.2759 12.452 15.5257 12.2851 15.7833 12.1307L10.7892 3.79846C10.2588 4.11631 9.74447 4.46001 9.24786 4.8283L15.0347 12.6309Z" fill="url(#paint5_linear_3139_18692)"/>
<path d="M25.2167 12.1307C25.4742 12.2851 25.7241 12.452 25.9653 12.6309L31.7521 4.82831C31.2555 4.46001 30.7411 4.11632 30.2108 3.79847L25.2167 12.1307Z" fill="url(#paint6_linear_3139_18692)"/>
<path d="M14.0126 13.5126C14.1188 13.4063 14.2276 13.3028 14.3387 13.2021L7.81495 6.00426C7.58619 6.21162 7.36229 6.42477 7.14352 6.64355C6.92474 6.86232 6.71159 7.08622 6.50423 7.31498L13.702 13.8387C13.8027 13.7276 13.9063 13.6188 14.0126 13.5126Z" fill="url(#paint7_linear_3139_18692)"/>
<path d="M26.6613 13.2021C26.7724 13.3028 26.8812 13.4063 26.9874 13.5126C27.0937 13.6188 27.1972 13.7276 27.2979 13.8387L34.4957 7.31498C34.2884 7.08622 34.0752 6.86232 33.8564 6.64355C33.6377 6.42477 33.4138 6.21162 33.185 6.00426L26.6613 13.2021Z" fill="url(#paint8_linear_3139_18692)"/>
<path d="M12.6307 15.2833C12.785 15.0258 12.952 14.7759 13.1309 14.5347L5.32828 8.74789C4.95998 9.24451 4.61629 9.75887 4.29844 10.2892L12.6307 15.2833Z" fill="url(#paint9_linear_3139_18692)"/>
<path d="M27.8691 14.5347C28.048 14.7759 28.2149 15.0258 28.3693 15.2833L36.7015 10.2892C36.3837 9.75887 36.04 9.24451 35.6717 8.74789L27.8691 14.5347Z" fill="url(#paint10_linear_3139_18692)"/>
<path d="M12.0237 16.489C12.0813 16.3502 12.1421 16.2129 12.2062 16.0774L3.42462 11.924C3.29261 12.2031 3.16732 12.4857 3.04892 12.7715C2.93051 13.0574 2.81927 13.3458 2.71525 13.6365L11.8617 16.9092C11.9122 16.768 11.9662 16.6279 12.0237 16.489Z" fill="url(#paint11_linear_3139_18692)"/>
<path d="M28.7937 16.0774C28.8579 16.2129 28.9187 16.3502 28.9762 16.489C29.0337 16.6279 29.0878 16.768 29.1383 16.9092L38.2847 13.6366C38.1807 13.3458 38.0695 13.0574 37.9511 12.7716C37.8326 12.4857 37.7073 12.2031 37.5753 11.924L28.7937 16.0774Z" fill="url(#paint12_linear_3139_18692)"/>
<path d="M11.4247 18.6538C11.4687 18.3568 11.5274 18.0621 11.6003 17.7707L2.17716 15.4104C2.02694 16.0101 1.90625 16.6168 1.81553 17.2284L11.4247 18.6538Z" fill="url(#paint13_linear_3139_18692)"/>
<path d="M29.3996 17.7707C29.4726 18.0621 29.5312 18.3568 29.5753 18.6538L39.1844 17.2284C39.0937 16.6169 38.973 16.0101 38.8228 15.4104L29.3996 17.7707Z" fill="url(#paint14_linear_3139_18692)"/>
<path d="M11.3254 20C11.3254 19.8497 11.3291 19.6996 11.3364 19.5498L1.63384 19.0732C1.61869 19.3816 1.61108 19.6906 1.61108 20C1.61108 22.4805 2.09966 24.9368 3.04892 27.2285C3.99817 29.5202 5.38952 31.6025 7.14352 33.3565C8.8975 35.1105 10.9798 36.5018 13.2715 37.4511C15.5632 38.4003 18.0194 38.8889 20.5 38.8889C22.9805 38.8889 25.4367 38.4003 27.7285 37.4511C30.0201 36.5018 32.1025 35.1105 33.8564 33.3565C35.6104 31.6025 37.0018 29.5202 37.9511 27.2285C38.9003 24.9368 39.3889 22.4805 39.3889 20C39.3889 19.6906 39.3813 19.3816 39.3661 19.0732L29.6635 19.5498C29.6709 19.6996 29.6746 19.8497 29.6746 20C29.6746 21.2048 29.4373 22.3978 28.9762 23.511C28.5151 24.6241 27.8394 25.6355 26.9874 26.4874C26.1355 27.3394 25.1241 28.0152 24.011 28.4763C22.8978 28.9373 21.7048 29.1746 20.5 29.1746C19.2952 29.1746 18.1021 28.9373 16.989 28.4763C15.8759 28.0152 14.8645 27.3394 14.0126 26.4874C13.1606 25.6355 12.4848 24.6241 12.0237 23.511C11.5627 22.3978 11.3254 21.2048 11.3254 20Z" fill="url(#paint15_linear_3139_18692)"/>
<path d="M20.5013 10.8251C20.351 10.8251 20.2009 10.8288 20.0511 10.8362L19.8701 7.15153C20.2886 6.97104 20.7177 6.81036 21.1561 6.67075L20.9515 10.8362C20.8017 10.8288 20.6516 10.8251 20.5013 10.8251Z" fill="#2E3DA3"/>
<path d="M22.5321 6.30909L21.8475 10.9244C22.1446 10.9685 22.4393 11.0271 22.7305 11.1001L23.9868 6.08481C23.4939 6.13443 23.0086 6.20965 22.5321 6.30909Z" fill="#2E3DA3"/>
<path d="M25.5054 6.01425L23.5921 11.3614C23.7333 11.4119 23.8734 11.466 24.0123 11.5235C24.1511 11.581 24.2884 11.6418 24.4239 11.706L27.0697 6.11201C26.5563 6.05106 26.0343 6.01799 25.5054 6.01425Z" fill="#2E3DA3"/>
<path d="M28.6563 6.39392L25.218 12.1304C25.4756 12.2848 25.7254 12.4517 25.9666 12.6306L30.2378 6.8716C29.7241 6.68241 29.1963 6.52249 28.6563 6.39392Z" fill="#2E3DA3"/>
<path d="M31.7845 7.55063L26.6626 13.2018C26.7737 13.3025 26.8824 13.406 26.9887 13.5123C27.095 13.6185 27.1985 13.7273 27.2993 13.8384L33.2657 8.43073C32.792 8.10823 32.2974 7.81403 31.7845 7.55063Z" fill="#2E3DA3"/>
<path d="M34.6504 9.50601L27.8704 14.5344C28.0493 14.7756 28.2162 15.0254 28.3706 15.283L35.9082 10.7651C35.516 10.3194 35.0958 9.89873 34.6504 9.50601Z" fill="#2E3DA3"/>
<path d="M37.0096 12.1919L28.795 16.077C28.8592 16.2126 28.92 16.3499 28.9775 16.4887C29.0351 16.6276 29.0891 16.7677 29.1396 16.9089L37.9269 13.7647C37.6548 13.2192 37.348 12.694 37.0096 12.1919Z" fill="#2E3DA3"/>
<path d="M38.6359 15.4572L29.401 17.7704C29.4739 18.0618 29.5326 18.3565 29.5766 18.6535L39.1176 17.2382C38.9957 16.6293 38.8342 16.0348 38.6359 15.4572Z" fill="#2E3DA3"/>
<path d="M39.36 19.0732L29.6649 19.5495C29.6722 19.6993 29.6759 19.8494 29.6759 19.9997C29.6759 21.2045 29.4386 22.3976 28.9775 23.5107C28.5165 24.6238 27.8407 25.6352 26.9887 26.4871C26.1367 27.3391 25.1254 28.0149 24.0123 28.476C22.8992 28.937 21.7061 29.1743 20.5013 29.1743C19.2965 29.1743 18.1034 28.937 16.9903 28.476C15.8772 28.0149 14.8658 27.3391 14.0139 26.4871C13.1619 25.6352 12.4861 24.6238 12.0251 23.5107C11.8426 23.0703 11.6953 22.6175 11.5838 22.1564C12.6208 28.8565 18.4136 33.9855 25.4043 33.9855C33.1285 33.9855 39.3902 27.7239 39.3902 19.9997C39.3902 19.6884 39.38 19.3795 39.36 19.0732Z" fill="#2E3DA3"/>
<path d="M11.5837 17.8432C11.5896 17.8189 11.5956 17.7947 11.6017 17.7704L11.5955 17.7689C11.5915 17.7937 11.5876 17.8184 11.5837 17.8432Z" fill="#2E3DA3"/>
<path d="M11.7689 16.8752L11.863 16.9089C11.9135 16.7677 11.9676 16.6276 12.0251 16.4887C12.0826 16.3499 12.1434 16.2126 12.2076 16.077L12.0045 15.981C11.9164 16.2751 11.8377 16.5733 11.7689 16.8752Z" fill="#2E3DA3"/>
<path d="M12.3055 15.0873L12.632 15.283C12.7864 15.0254 12.9533 14.7756 13.1322 14.5344L12.6758 14.1959C12.5425 14.4878 12.419 14.7851 12.3055 15.0873Z" fill="#2E3DA3"/>
<path d="M13.1196 13.3093L13.7034 13.8384C13.8041 13.7273 13.9076 13.6185 14.0139 13.5123C14.1201 13.406 14.2289 13.3025 14.34 13.2018L13.6415 12.431C13.4572 12.7168 13.2831 13.0097 13.1196 13.3093Z" fill="#2E3DA3"/>
<path d="M14.2464 11.566L15.036 12.6306C15.2772 12.4517 15.527 12.2848 15.7846 12.1304L14.9397 10.7207C14.6979 10.9932 14.4666 11.2752 14.2464 11.566Z" fill="#2E3DA3"/>
<path d="M15.7261 9.90339L16.5786 11.706C16.7142 11.6418 16.8515 11.581 16.9903 11.5235C17.1292 11.466 17.2693 11.4119 17.4105 11.3614L16.61 9.12424C16.3045 9.3716 16.0096 9.6316 15.7261 9.90339Z" fill="#2E3DA3"/>
<path d="M17.5946 8.39572L18.272 11.1001C18.5634 11.0271 18.8581 10.9685 19.1551 10.9244L18.6816 7.73259C18.3086 7.93743 17.946 8.15881 17.5946 8.39572Z" fill="#2E3DA3"/>
<defs>
<linearGradient id="paint0_linear_3139_18692" x1="-3.8667" y1="-3.23334" x2="37.2167" y2="38.8889" gradientUnits="userSpaceOnUse">
<stop offset="0.0363151" stop-color="#2E3DA3"/>
<stop offset="1" stop-color="#96A4FD"/>
</linearGradient>
<linearGradient id="paint1_linear_3139_18692" x1="-3.8667" y1="-3.23334" x2="37.2167" y2="38.8889" gradientUnits="userSpaceOnUse">
<stop offset="0.0363151" stop-color="#2E3DA3"/>
<stop offset="1" stop-color="#96A4FD"/>
</linearGradient>
<linearGradient id="paint2_linear_3139_18692" x1="-3.8667" y1="-3.23334" x2="37.2167" y2="38.8889" gradientUnits="userSpaceOnUse">
<stop offset="0.0363151" stop-color="#2E3DA3"/>
<stop offset="1" stop-color="#96A4FD"/>
</linearGradient>
<linearGradient id="paint3_linear_3139_18692" x1="-3.8667" y1="-3.23334" x2="37.2167" y2="38.8889" gradientUnits="userSpaceOnUse">
<stop offset="0.0363151" stop-color="#2E3DA3"/>
<stop offset="1" stop-color="#96A4FD"/>
</linearGradient>
<linearGradient id="paint4_linear_3139_18692" x1="-3.8667" y1="-3.23334" x2="37.2167" y2="38.8889" gradientUnits="userSpaceOnUse">
<stop offset="0.0363151" stop-color="#2E3DA3"/>
<stop offset="1" stop-color="#96A4FD"/>
</linearGradient>
<linearGradient id="paint5_linear_3139_18692" x1="-3.8667" y1="-3.23334" x2="37.2167" y2="38.8889" gradientUnits="userSpaceOnUse">
<stop offset="0.0363151" stop-color="#2E3DA3"/>
<stop offset="1" stop-color="#96A4FD"/>
</linearGradient>
<linearGradient id="paint6_linear_3139_18692" x1="-3.8667" y1="-3.23334" x2="37.2167" y2="38.8889" gradientUnits="userSpaceOnUse">
<stop offset="0.0363151" stop-color="#2E3DA3"/>
<stop offset="1" stop-color="#96A4FD"/>
</linearGradient>
<linearGradient id="paint7_linear_3139_18692" x1="-3.8667" y1="-3.23334" x2="37.2167" y2="38.8889" gradientUnits="userSpaceOnUse">
<stop offset="0.0363151" stop-color="#2E3DA3"/>
<stop offset="1" stop-color="#96A4FD"/>
</linearGradient>
<linearGradient id="paint8_linear_3139_18692" x1="-3.8667" y1="-3.23334" x2="37.2167" y2="38.8889" gradientUnits="userSpaceOnUse">
<stop offset="0.0363151" stop-color="#2E3DA3"/>
<stop offset="1" stop-color="#96A4FD"/>
</linearGradient>
<linearGradient id="paint9_linear_3139_18692" x1="-3.8667" y1="-3.23334" x2="37.2167" y2="38.8889" gradientUnits="userSpaceOnUse">
<stop offset="0.0363151" stop-color="#2E3DA3"/>
<stop offset="1" stop-color="#96A4FD"/>
</linearGradient>
<linearGradient id="paint10_linear_3139_18692" x1="-3.8667" y1="-3.23334" x2="37.2167" y2="38.8889" gradientUnits="userSpaceOnUse">
<stop offset="0.0363151" stop-color="#2E3DA3"/>
<stop offset="1" stop-color="#96A4FD"/>
</linearGradient>
<linearGradient id="paint11_linear_3139_18692" x1="-3.8667" y1="-3.23334" x2="37.2167" y2="38.8889" gradientUnits="userSpaceOnUse">
<stop offset="0.0363151" stop-color="#2E3DA3"/>
<stop offset="1" stop-color="#96A4FD"/>
</linearGradient>
<linearGradient id="paint12_linear_3139_18692" x1="-3.8667" y1="-3.23334" x2="37.2167" y2="38.8889" gradientUnits="userSpaceOnUse">
<stop offset="0.0363151" stop-color="#2E3DA3"/>
<stop offset="1" stop-color="#96A4FD"/>
</linearGradient>
<linearGradient id="paint13_linear_3139_18692" x1="-3.8667" y1="-3.23334" x2="37.2167" y2="38.8889" gradientUnits="userSpaceOnUse">
<stop offset="0.0363151" stop-color="#2E3DA3"/>
<stop offset="1" stop-color="#96A4FD"/>
</linearGradient>
<linearGradient id="paint14_linear_3139_18692" x1="-3.8667" y1="-3.23334" x2="37.2167" y2="38.8889" gradientUnits="userSpaceOnUse">
<stop offset="0.0363151" stop-color="#2E3DA3"/>
<stop offset="1" stop-color="#96A4FD"/>
</linearGradient>
<linearGradient id="paint15_linear_3139_18692" x1="-3.8667" y1="-3.23334" x2="37.2167" y2="38.8889" gradientUnits="userSpaceOnUse">
<stop offset="0.0363151" stop-color="#2E3DA3"/>
<stop offset="1" stop-color="#96A4FD"/>
</linearGradient>
</defs>
</svg>
